<?xml version="1.0" encoding="utf-8"?>
<svg xmlns="http://www.w3.org/2000/svg" xmlns:xlink="http://www.w3.org/1999/xlink" width="600" height="400" viewBox="0 0 2400 1600">
<defs>
  <clipPath id="clip540">
    <rect x="0" y="0" width="2400" height="1600"/>
  </clipPath>
</defs>
<path clip-path="url(#clip540)" d="
M0 1600 L2400 1600 L2400 0 L0 0  Z
  " fill="#ffffff" fill-rule="evenodd" fill-opacity="1"/>
<defs>
  <clipPath id="clip541">
    <rect x="480" y="0" width="1681" height="1600"/>
  </clipPath>
</defs>
<path clip-path="url(#clip540)" d="
M216.436 1423.18 L2352.76 1423.18 L2352.76 123.472 L216.436 123.472  Z
  " fill="#ffffff" fill-rule="evenodd" fill-opacity="1"/>
<defs>
  <clipPath id="clip542">
    <rect x="216" y="123" width="2137" height="1301"/>
  </clipPath>
</defs>
<polyline clip-path="url(#clip542)" style="stroke:#000000; stroke-width:2; stroke-opacity:0.1; fill:none" points="
  266.709,1423.18 266.709,123.472 
  "/>
<polyline clip-path="url(#clip542)" style="stroke:#000000; stroke-width:2; stroke-opacity:0.1; fill:none" points="
  674.271,1423.18 674.271,123.472 
  "/>
<polyline clip-path="url(#clip542)" style="stroke:#000000; stroke-width:2; stroke-opacity:0.1; fill:none" points="
  1081.83,1423.18 1081.83,123.472 
  "/>
<polyline clip-path="url(#clip542)" style="stroke:#000000; stroke-width:2; stroke-opacity:0.1; fill:none" points="
  1489.4,1423.18 1489.4,123.472 
  "/>
<polyline clip-path="url(#clip542)" style="stroke:#000000; stroke-width:2; stroke-opacity:0.1; fill:none" points="
  1896.96,1423.18 1896.96,123.472 
  "/>
<polyline clip-path="url(#clip542)" style="stroke:#000000; stroke-width:2; stroke-opacity:0.1; fill:none" points="
  2304.52,1423.18 2304.52,123.472 
  "/>
<polyline clip-path="url(#clip540)" style="stroke:#000000; stroke-width:4; stroke-opacity:1; fill:none" points="
  216.436,1423.18 2352.76,1423.18 
  "/>
<polyline clip-path="url(#clip540)" style="stroke:#000000; stroke-width:4; stroke-opacity:1; fill:none" points="
  266.709,1423.18 266.709,1407.58 
  "/>
<polyline clip-path="url(#clip540)" style="stroke:#000000; stroke-width:4; stroke-opacity:1; fill:none" points="
  674.271,1423.18 674.271,1407.58 
  "/>
<polyline clip-path="url(#clip540)" style="stroke:#000000; stroke-width:4; stroke-opacity:1; fill:none" points="
  1081.83,1423.18 1081.83,1407.58 
  "/>
<polyline clip-path="url(#clip540)" style="stroke:#000000; stroke-width:4; stroke-opacity:1; fill:none" points="
  1489.4,1423.18 1489.4,1407.58 
  "/>
<polyline clip-path="url(#clip540)" style="stroke:#000000; stroke-width:4; stroke-opacity:1; fill:none" points="
  1896.96,1423.18 1896.96,1407.58 
  "/>
<polyline clip-path="url(#clip540)" style="stroke:#000000; stroke-width:4; stroke-opacity:1; fill:none" points="
  2304.52,1423.18 2304.52,1407.58 
  "/>
<path clip-path="url(#clip540)" d="M 0 0 M266.709 1452.37 Q263.098 1452.37 261.269 1455.94 Q259.463 1459.48 259.463 1466.61 Q259.463 1473.71 261.269 1477.28 Q263.098 1480.82 266.709 1480.82 Q270.343 1480.82 272.148 1477.28 Q273.977 1473.71 273.977 1466.61 Q273.977 1459.48 272.148 1455.94 Q270.343 1452.37 266.709 1452.37 M266.709 1448.67 Q272.519 1448.67 275.574 1453.27 Q278.653 1457.86 278.653 1466.61 Q278.653 1475.33 275.574 1479.94 Q272.519 1484.52 266.709 1484.52 Q260.899 1484.52 257.82 1479.94 Q254.764 1475.33 254.764 1466.61 Q254.764 1457.86 257.82 1453.27 Q260.899 1448.67 266.709 1448.67 Z" fill="#000000" fill-rule="evenodd" fill-opacity="1" /><path clip-path="url(#clip540)" d="M 0 0 M648.959 1479.92 L656.598 1479.92 L656.598 1453.55 L648.287 1455.22 L648.287 1450.96 L656.551 1449.29 L661.227 1449.29 L661.227 1479.92 L668.866 1479.92 L668.866 1483.85 L648.959 1483.85 L648.959 1479.92 Z" fill="#000000" fill-rule="evenodd" fill-opacity="1" /><path clip-path="url(#clip540)" d="M 0 0 M688.31 1452.37 Q684.699 1452.37 682.871 1455.94 Q681.065 1459.48 681.065 1466.61 Q681.065 1473.71 682.871 1477.28 Q684.699 1480.82 688.31 1480.82 Q691.945 1480.82 693.75 1477.28 Q695.579 1473.71 695.579 1466.61 Q695.579 1459.48 693.75 1455.94 Q691.945 1452.37 688.31 1452.37 M688.31 1448.67 Q694.121 1448.67 697.176 1453.27 Q700.255 1457.86 700.255 1466.61 Q700.255 1475.33 697.176 1479.94 Q694.121 1484.52 688.31 1484.52 Q682.5 1484.52 679.422 1479.94 Q676.366 1475.33 676.366 1466.61 Q676.366 1457.86 679.422 1453.27 Q682.5 1448.67 688.31 1448.67 Z" fill="#000000" fill-rule="evenodd" fill-opacity="1" /><path clip-path="url(#clip540)" d="M 0 0 M1060.61 1479.92 L1076.93 1479.92 L1076.93 1483.85 L1054.98 1483.85 L1054.98 1479.92 Q1057.64 1477.16 1062.23 1472.53 Q1066.83 1467.88 1068.01 1466.54 Q1070.26 1464.01 1071.14 1462.28 Q1072.04 1460.52 1072.04 1458.83 Q1072.04 1456.07 1070.1 1454.34 Q1068.18 1452.6 1065.07 1452.6 Q1062.88 1452.6 1060.42 1453.37 Q1057.99 1454.13 1055.21 1455.68 L1055.21 1450.96 Q1058.04 1449.82 1060.49 1449.25 Q1062.94 1448.67 1064.98 1448.67 Q1070.35 1448.67 1073.55 1451.35 Q1076.74 1454.04 1076.74 1458.53 Q1076.74 1460.66 1075.93 1462.58 Q1075.14 1464.48 1073.04 1467.07 Q1072.46 1467.74 1069.36 1470.96 Q1066.25 1474.15 1060.61 1479.92 Z" fill="#000000" fill-rule="evenodd" fill-opacity="1" /><path clip-path="url(#clip540)" d="M 0 0 M1096.74 1452.37 Q1093.13 1452.37 1091.3 1455.94 Q1089.5 1459.48 1089.5 1466.61 Q1089.5 1473.71 1091.3 1477.28 Q1093.13 1480.82 1096.74 1480.82 Q1100.38 1480.82 1102.18 1477.28 Q1104.01 1473.71 1104.01 1466.61 Q1104.01 1459.48 1102.18 1455.94 Q1100.38 1452.37 1096.74 1452.37 M1096.74 1448.67 Q1102.55 1448.67 1105.61 1453.27 Q1108.69 1457.86 1108.69 1466.61 Q1108.69 1475.33 1105.61 1479.94 Q1102.55 1484.52 1096.74 1484.52 Q1090.93 1484.52 1087.85 1479.94 Q1084.8 1475.33 1084.8 1466.61 Q1084.8 1457.86 1087.85 1453.27 Q1090.93 1448.67 1096.74 1448.67 Z" fill="#000000" fill-rule="evenodd" fill-opacity="1" /><path clip-path="url(#clip540)" d="M 0 0 M1478.24 1465.22 Q1481.6 1465.94 1483.47 1468.2 Q1485.37 1470.47 1485.37 1473.81 Q1485.37 1478.92 1481.85 1481.72 Q1478.33 1484.52 1471.85 1484.52 Q1469.67 1484.52 1467.36 1484.08 Q1465.07 1483.67 1462.61 1482.81 L1462.61 1478.3 Q1464.56 1479.43 1466.87 1480.01 Q1469.19 1480.59 1471.71 1480.59 Q1476.11 1480.59 1478.4 1478.85 Q1480.72 1477.12 1480.72 1473.81 Q1480.72 1470.75 1478.56 1469.04 Q1476.43 1467.3 1472.61 1467.3 L1468.59 1467.3 L1468.59 1463.46 L1472.8 1463.46 Q1476.25 1463.46 1478.08 1462.09 Q1479.91 1460.7 1479.91 1458.11 Q1479.91 1455.45 1478.01 1454.04 Q1476.13 1452.6 1472.61 1452.6 Q1470.69 1452.6 1468.49 1453.02 Q1466.29 1453.44 1463.66 1454.31 L1463.66 1450.15 Q1466.32 1449.41 1468.63 1449.04 Q1470.97 1448.67 1473.03 1448.67 Q1478.35 1448.67 1481.46 1451.1 Q1484.56 1453.5 1484.56 1457.63 Q1484.56 1460.5 1482.91 1462.49 Q1481.27 1464.45 1478.24 1465.22 Z" fill="#000000" fill-rule="evenodd" fill-opacity="1" /><path clip-path="url(#clip540)" d="M 0 0 M1504.23 1452.37 Q1500.62 1452.37 1498.79 1455.94 Q1496.99 1459.48 1496.99 1466.61 Q1496.99 1473.71 1498.79 1477.28 Q1500.62 1480.82 1504.23 1480.82 Q1507.87 1480.82 1509.67 1477.28 Q1511.5 1473.71 1511.5 1466.61 Q1511.5 1459.48 1509.67 1455.94 Q1507.87 1452.37 1504.23 1452.37 M1504.23 1448.67 Q1510.04 1448.67 1513.1 1453.27 Q1516.18 1457.86 1516.18 1466.61 Q1516.18 1475.33 1513.1 1479.94 Q1510.04 1484.52 1504.23 1484.52 Q1498.42 1484.52 1495.35 1479.94 Q1492.29 1475.33 1492.29 1466.61 Q1492.29 1457.86 1495.35 1453.27 Q1498.42 1448.67 1504.23 1448.67 Z" fill="#000000" fill-rule="evenodd" fill-opacity="1" /><path clip-path="url(#clip540)" d="M 0 0 M1885.13 1453.37 L1873.32 1471.81 L1885.13 1471.81 L1885.13 1453.37 M1883.9 1449.29 L1889.78 1449.29 L1889.78 1471.81 L1894.71 1471.81 L1894.71 1475.7 L1889.78 1475.7 L1889.78 1483.85 L1885.13 1483.85 L1885.13 1475.7 L1869.53 1475.7 L1869.53 1471.19 L1883.9 1449.29 Z" fill="#000000" fill-rule="evenodd" fill-opacity="1" /><path clip-path="url(#clip540)" d="M 0 0 M1912.44 1452.37 Q1908.83 1452.37 1907 1455.94 Q1905.2 1459.48 1905.2 1466.61 Q1905.2 1473.71 1907 1477.28 Q1908.83 1480.82 1912.44 1480.82 Q1916.08 1480.82 1917.88 1477.28 Q1919.71 1473.71 1919.71 1466.61 Q1919.71 1459.48 1917.88 1455.94 Q1916.08 1452.37 1912.44 1452.37 M1912.44 1448.67 Q1918.25 1448.67 1921.31 1453.27 Q1924.39 1457.86 1924.39 1466.61 Q1924.39 1475.33 1921.31 1479.94 Q1918.25 1484.52 1912.44 1484.52 Q1906.63 1484.52 1903.56 1479.94 Q1900.5 1475.33 1900.5 1466.61 Q1900.5 1457.86 1903.56 1453.27 Q1906.63 1448.67 1912.44 1448.67 Z" fill="#000000" fill-rule="evenodd" fill-opacity="1" /><path clip-path="url(#clip540)" d="M 0 0 M2279.22 1449.29 L2297.58 1449.29 L2297.58 1453.23 L2283.5 1453.23 L2283.5 1461.7 Q2284.52 1461.35 2285.54 1461.19 Q2286.56 1461 2287.58 1461 Q2293.36 1461 2296.74 1464.18 Q2300.12 1467.35 2300.12 1472.76 Q2300.12 1478.34 2296.65 1481.44 Q2293.18 1484.52 2286.86 1484.52 Q2284.68 1484.52 2282.41 1484.15 Q2280.17 1483.78 2277.76 1483.04 L2277.76 1478.34 Q2279.85 1479.48 2282.07 1480.03 Q2284.29 1480.59 2286.77 1480.59 Q2290.77 1480.59 2293.11 1478.48 Q2295.45 1476.38 2295.45 1472.76 Q2295.45 1469.15 2293.11 1467.05 Q2290.77 1464.94 2286.77 1464.94 Q2284.89 1464.94 2283.02 1465.36 Q2281.16 1465.77 2279.22 1466.65 L2279.22 1449.29 Z" fill="#000000" fill-rule="evenodd" fill-opacity="1" /><path clip-path="url(#clip540)" d="M 0 0 M2319.34 1452.37 Q2315.72 1452.37 2313.9 1455.94 Q2312.09 1459.48 2312.09 1466.61 Q2312.09 1473.71 2313.9 1477.28 Q2315.72 1480.82 2319.34 1480.82 Q2322.97 1480.82 2324.78 1477.28 Q2326.6 1473.71 2326.6 1466.61 Q2326.6 1459.48 2324.78 1455.94 Q2322.97 1452.37 2319.34 1452.37 M2319.34 1448.67 Q2325.15 1448.67 2328.2 1453.27 Q2331.28 1457.86 2331.28 1466.61 Q2331.28 1475.33 2328.2 1479.94 Q2325.15 1484.52 2319.34 1484.52 Q2313.53 1484.52 2310.45 1479.94 Q2307.39 1475.33 2307.39 1466.61 Q2307.39 1457.86 2310.45 1453.27 Q2313.53 1448.67 2319.34 1448.67 Z" fill="#000000" fill-rule="evenodd" fill-opacity="1" /><path clip-path="url(#clip540)" d="M 0 0 M1044.7 1518.52 L1044.7 1523.39 L1039.1 1523.39 Q1035.95 1523.39 1034.71 1524.66 Q1033.5 1525.93 1033.5 1529.24 L1033.5 1532.4 L1043.14 1532.4 L1043.14 1536.95 L1033.5 1536.95 L1033.5 1568.04 L1027.61 1568.04 L1027.61 1536.95 L1022.01 1536.95 L1022.01 1532.4 L1027.61 1532.4 L1027.61 1529.91 Q1027.61 1523.96 1030.38 1521.26 Q1033.15 1518.52 1039.17 1518.52 L1044.7 1518.52 Z" fill="#000000" fill-rule="evenodd" fill-opacity="1" /><path clip-path="url(#clip540)" d="M 0 0 M1070.26 1537.87 Q1069.28 1537.3 1068.1 1537.04 Q1066.95 1536.76 1065.55 1536.76 Q1060.59 1536.76 1057.91 1540 Q1055.27 1543.22 1055.27 1549.27 L1055.27 1568.04 L1049.38 1568.04 L1049.38 1532.4 L1055.27 1532.4 L1055.27 1537.93 Q1057.12 1534.69 1060.08 1533.13 Q1063.04 1531.54 1067.27 1531.54 Q1067.88 1531.54 1068.61 1531.63 Q1069.34 1531.7 1070.23 1531.85 L1070.26 1537.87 Z" fill="#000000" fill-rule="evenodd" fill-opacity="1" /><path clip-path="url(#clip540)" d="M 0 0 M1105.46 1548.76 L1105.46 1551.62 L1078.54 1551.62 Q1078.92 1557.67 1082.17 1560.85 Q1085.44 1564 1091.27 1564 Q1094.64 1564 1097.79 1563.17 Q1100.98 1562.35 1104.1 1560.69 L1104.1 1566.23 Q1100.95 1567.57 1097.64 1568.27 Q1094.32 1568.97 1090.92 1568.97 Q1082.39 1568.97 1077.39 1564 Q1072.43 1559.04 1072.43 1550.57 Q1072.43 1541.82 1077.14 1536.69 Q1081.88 1531.54 1089.9 1531.54 Q1097.09 1531.54 1101.26 1536.18 Q1105.46 1540.8 1105.46 1548.76 M1099.61 1547.04 Q1099.54 1542.23 1096.9 1539.37 Q1094.29 1536.5 1089.96 1536.5 Q1085.06 1536.5 1082.1 1539.27 Q1079.17 1542.04 1078.73 1547.07 L1099.61 1547.04 Z" fill="#000000" fill-rule="evenodd" fill-opacity="1" /><path clip-path="url(#clip540)" d="M 0 0 M1118.58 1550.25 Q1118.58 1556.71 1121.22 1560.4 Q1123.89 1564.07 1128.54 1564.07 Q1133.19 1564.07 1135.86 1560.4 Q1138.53 1556.71 1138.53 1550.25 Q1138.53 1543.79 1135.86 1540.13 Q1133.19 1536.44 1128.54 1536.44 Q1123.89 1536.44 1121.22 1540.13 Q1118.58 1543.79 1118.58 1550.25 M1138.53 1562.7 Q1136.69 1565.88 1133.86 1567.44 Q1131.06 1568.97 1127.11 1568.97 Q1120.65 1568.97 1116.57 1563.81 Q1112.53 1558.65 1112.53 1550.25 Q1112.53 1541.85 1116.57 1536.69 Q1120.65 1531.54 1127.11 1531.54 Q1131.06 1531.54 1133.86 1533.1 Q1136.69 1534.62 1138.53 1537.81 L1138.53 1532.4 L1144.39 1532.4 L1144.39 1581.6 L1138.53 1581.6 L1138.53 1562.7 Z" fill="#000000" fill-rule="evenodd" fill-opacity="1" /><path clip-path="url(#clip540)" d="M 0 0 M1155.85 1553.98 L1155.85 1532.4 L1161.71 1532.4 L1161.71 1553.75 Q1161.71 1558.81 1163.68 1561.36 Q1165.65 1563.87 1169.6 1563.87 Q1174.34 1563.87 1177.08 1560.85 Q1179.85 1557.83 1179.85 1552.61 L1179.85 1532.4 L1185.7 1532.4 L1185.7 1568.04 L1179.85 1568.04 L1179.85 1562.57 Q1177.72 1565.82 1174.88 1567.41 Q1172.08 1568.97 1168.36 1568.97 Q1162.22 1568.97 1159.03 1565.15 Q1155.85 1561.33 1155.85 1553.98 M1170.59 1531.54 L1170.59 1531.54 Z" fill="#000000" fill-rule="evenodd" fill-opacity="1" /><path clip-path="url(#clip540)" d="M 0 0 M1228.26 1548.76 L1228.26 1551.62 L1201.33 1551.62 Q1201.71 1557.67 1204.96 1560.85 Q1208.24 1564 1214.06 1564 Q1217.44 1564 1220.59 1563.17 Q1223.77 1562.35 1226.89 1560.69 L1226.89 1566.23 Q1223.74 1567.57 1220.43 1568.27 Q1217.12 1568.97 1213.71 1568.97 Q1205.18 1568.97 1200.19 1564 Q1195.22 1559.04 1195.22 1550.57 Q1195.22 1541.82 1199.93 1536.69 Q1204.67 1531.54 1212.7 1531.54 Q1219.89 1531.54 1224.06 1536.18 Q1228.26 1540.8 1228.26 1548.76 M1222.4 1547.04 Q1222.34 1542.23 1219.7 1539.37 Q1217.09 1536.5 1212.76 1536.5 Q1207.86 1536.5 1204.9 1539.27 Q1201.97 1542.04 1201.52 1547.07 L1222.4 1547.04 Z" fill="#000000" fill-rule="evenodd" fill-opacity="1" /><path clip-path="url(#clip540)" d="M 0 0 M1267.5 1546.53 L1267.5 1568.04 L1261.65 1568.04 L1261.65 1546.72 Q1261.65 1541.66 1259.67 1539.14 Q1257.7 1536.63 1253.75 1536.63 Q1249.01 1536.63 1246.27 1539.65 Q1243.54 1542.68 1243.54 1547.9 L1243.54 1568.04 L1237.65 1568.04 L1237.65 1532.4 L1243.54 1532.4 L1243.54 1537.93 Q1245.64 1534.72 1248.47 1533.13 Q1251.34 1531.54 1255.06 1531.54 Q1261.2 1531.54 1264.35 1535.36 Q1267.5 1539.14 1267.5 1546.53 Z" fill="#000000" fill-rule="evenodd" fill-opacity="1" /><path clip-path="url(#clip540)" d="M 0 0 M1304.84 1533.76 L1304.84 1539.24 Q1302.36 1537.87 1299.84 1537.2 Q1297.36 1536.5 1294.81 1536.5 Q1289.12 1536.5 1285.96 1540.13 Q1282.81 1543.73 1282.81 1550.25 Q1282.81 1556.78 1285.96 1560.4 Q1289.12 1564 1294.81 1564 Q1297.36 1564 1299.84 1563.33 Q1302.36 1562.63 1304.84 1561.26 L1304.84 1566.68 Q1302.39 1567.82 1299.75 1568.39 Q1297.14 1568.97 1294.18 1568.97 Q1286.12 1568.97 1281.38 1563.91 Q1276.64 1558.85 1276.64 1550.25 Q1276.64 1541.53 1281.41 1536.53 Q1286.22 1531.54 1294.56 1531.54 Q1297.26 1531.54 1299.84 1532.11 Q1302.42 1532.65 1304.84 1533.76 Z" fill="#000000" fill-rule="evenodd" fill-opacity="1" /><path clip-path="url(#clip540)" d="M 0 0 M1329.86 1571.35 Q1327.37 1577.72 1325.02 1579.66 Q1322.66 1581.6 1318.72 1581.6 L1314.04 1581.6 L1314.04 1576.7 L1317.47 1576.7 Q1319.89 1576.7 1321.23 1575.56 Q1322.57 1574.41 1324.19 1570.14 L1325.24 1567.47 L1310.82 1532.4 L1317.03 1532.4 L1328.17 1560.28 L1339.31 1532.4 L1345.52 1532.4 L1329.86 1571.35 Z" fill="#000000" fill-rule="evenodd" fill-opacity="1" /><path clip-path="url(#clip540)" d="M 0 0 M1388.39 1518.58 Q1384.12 1525.9 1382.05 1533.06 Q1379.99 1540.23 1379.99 1547.58 Q1379.99 1554.93 1382.05 1562.16 Q1384.16 1569.35 1388.39 1576.64 L1383.3 1576.64 Q1378.52 1569.16 1376.13 1561.93 Q1373.78 1554.71 1373.78 1547.58 Q1373.78 1540.48 1376.13 1533.29 Q1378.49 1526.09 1383.3 1518.58 L1388.39 1518.58 Z" fill="#000000" fill-rule="evenodd" fill-opacity="1" /><path clip-path="url(#clip540)" d="M 0 0 M1432.41 1561.26 L1432.41 1548.5 L1421.9 1548.5 L1421.9 1543.22 L1438.77 1543.22 L1438.77 1563.62 Q1435.05 1566.26 1430.56 1567.63 Q1426.07 1568.97 1420.98 1568.97 Q1409.84 1568.97 1403.54 1562.47 Q1397.27 1555.95 1397.27 1544.33 Q1397.27 1532.68 1403.54 1526.19 Q1409.84 1519.66 1420.98 1519.66 Q1425.63 1519.66 1429.8 1520.81 Q1434 1521.96 1437.53 1524.18 L1437.53 1531.03 Q1433.97 1528 1429.96 1526.48 Q1425.95 1524.95 1421.52 1524.95 Q1412.8 1524.95 1408.41 1529.82 Q1404.05 1534.69 1404.05 1544.33 Q1404.05 1553.94 1408.41 1558.81 Q1412.8 1563.68 1421.52 1563.68 Q1424.93 1563.68 1427.6 1563.11 Q1430.28 1562.51 1432.41 1561.26 Z" fill="#000000" fill-rule="evenodd" fill-opacity="1" /><path clip-path="url(#clip540)" d="M 0 0 M1450.52 1520.52 L1456.95 1520.52 L1456.95 1540 L1480.31 1540 L1480.31 1520.52 L1486.74 1520.52 L1486.74 1568.04 L1480.31 1568.04 L1480.31 1545.41 L1456.95 1545.41 L1456.95 1568.04 L1450.52 1568.04 L1450.52 1520.52 Z" fill="#000000" fill-rule="evenodd" fill-opacity="1" /><path clip-path="url(#clip540)" d="M 0 0 M1496.73 1532.4 L1524.55 1532.4 L1524.55 1537.74 L1502.53 1563.37 L1524.55 1563.37 L1524.55 1568.04 L1495.94 1568.04 L1495.94 1562.7 L1517.96 1537.07 L1496.73 1537.07 L1496.73 1532.4 Z" fill="#000000" fill-rule="evenodd" fill-opacity="1" /><path clip-path="url(#clip540)" d="M 0 0 M1532.57 1518.58 L1537.66 1518.58 Q1542.44 1526.09 1544.79 1533.29 Q1547.18 1540.48 1547.18 1547.58 Q1547.18 1554.71 1544.79 1561.93 Q1542.44 1569.16 1537.66 1576.64 L1532.57 1576.64 Q1536.81 1569.35 1538.87 1562.16 Q1540.97 1554.93 1540.97 1547.58 Q1540.97 1540.23 1538.87 1533.06 Q1536.81 1525.9 1532.57 1518.58 Z" fill="#000000" fill-rule="evenodd" fill-opacity="1" /><polyline clip-path="url(#clip542)" style="stroke:#000000; stroke-width:2; stroke-opacity:0.1; fill:none" points="
  216.436,1397.96 2352.76,1397.96 
  "/>
<polyline clip-path="url(#clip542)" style="stroke:#000000; stroke-width:2; stroke-opacity:0.1; fill:none" points="
  216.436,1141.78 2352.76,1141.78 
  "/>
<polyline clip-path="url(#clip542)" style="stroke:#000000; stroke-width:2; stroke-opacity:0.1; fill:none" points="
  216.436,885.593 2352.76,885.593 
  "/>
<polyline clip-path="url(#clip542)" style="stroke:#000000; stroke-width:2; stroke-opacity:0.1; fill:none" points="
  216.436,629.41 2352.76,629.41 
  "/>
<polyline clip-path="url(#clip542)" style="stroke:#000000; stroke-width:2; stroke-opacity:0.1; fill:none" points="
  216.436,373.228 2352.76,373.228 
  "/>
<polyline clip-path="url(#clip540)" style="stroke:#000000; stroke-width:4; stroke-opacity:1; fill:none" points="
  216.436,1423.18 216.436,123.472 
  "/>
<polyline clip-path="url(#clip540)" style="stroke:#000000; stroke-width:4; stroke-opacity:1; fill:none" points="
  216.436,1397.96 242.072,1397.96 
  "/>
<polyline clip-path="url(#clip540)" style="stroke:#000000; stroke-width:4; stroke-opacity:1; fill:none" points="
  216.436,1141.78 242.072,1141.78 
  "/>
<polyline clip-path="url(#clip540)" style="stroke:#000000; stroke-width:4; stroke-opacity:1; fill:none" points="
  216.436,885.593 242.072,885.593 
  "/>
<polyline clip-path="url(#clip540)" style="stroke:#000000; stroke-width:4; stroke-opacity:1; fill:none" points="
  216.436,629.41 242.072,629.41 
  "/>
<polyline clip-path="url(#clip540)" style="stroke:#000000; stroke-width:4; stroke-opacity:1; fill:none" points="
  216.436,373.228 242.072,373.228 
  "/>
<path clip-path="url(#clip540)" d="M 0 0 M62.9365 1383.76 Q59.3254 1383.76 57.4967 1387.32 Q55.6912 1390.86 55.6912 1397.99 Q55.6912 1405.1 57.4967 1408.66 Q59.3254 1412.21 62.9365 1412.21 Q66.5707 1412.21 68.3763 1408.66 Q70.205 1405.1 70.205 1397.99 Q70.205 1390.86 68.3763 1387.32 Q66.5707 1383.76 62.9365 1383.76 M62.9365 1380.05 Q68.7467 1380.05 71.8022 1384.66 Q74.8809 1389.24 74.8809 1397.99 Q74.8809 1406.72 71.8022 1411.33 Q68.7467 1415.91 62.9365 1415.91 Q57.1264 1415.91 54.0477 1411.33 Q50.9921 1406.72 50.9921 1397.99 Q50.9921 1389.24 54.0477 1384.66 Q57.1264 1380.05 62.9365 1380.05 Z" fill="#000000" fill-rule="evenodd" fill-opacity="1" /><path clip-path="url(#clip540)" d="M 0 0 M83.0984 1409.36 L87.9827 1409.36 L87.9827 1415.24 L83.0984 1415.24 L83.0984 1409.36 Z" fill="#000000" fill-rule="evenodd" fill-opacity="1" /><path clip-path="url(#clip540)" d="M 0 0 M108.168 1383.76 Q104.557 1383.76 102.728 1387.32 Q100.922 1390.86 100.922 1397.99 Q100.922 1405.1 102.728 1408.66 Q104.557 1412.21 108.168 1412.21 Q111.802 1412.21 113.608 1408.66 Q115.436 1405.1 115.436 1397.99 Q115.436 1390.86 113.608 1387.32 Q111.802 1383.76 108.168 1383.76 M108.168 1380.05 Q113.978 1380.05 117.033 1384.66 Q120.112 1389.24 120.112 1397.99 Q120.112 1406.72 117.033 1411.33 Q113.978 1415.91 108.168 1415.91 Q102.358 1415.91 99.2789 1411.33 Q96.2234 1406.72 96.2234 1397.99 Q96.2234 1389.24 99.2789 1384.66 Q102.358 1380.05 108.168 1380.05 Z" fill="#000000" fill-rule="evenodd" fill-opacity="1" /><path clip-path="url(#clip540)" d="M 0 0 M138.33 1383.76 Q134.719 1383.76 132.89 1387.32 Q131.084 1390.86 131.084 1397.99 Q131.084 1405.1 132.89 1408.66 Q134.719 1412.21 138.33 1412.21 Q141.964 1412.21 143.769 1408.66 Q145.598 1405.1 145.598 1397.99 Q145.598 1390.86 143.769 1387.32 Q141.964 1383.76 138.33 1383.76 M138.33 1380.05 Q144.14 1380.05 147.195 1384.66 Q150.274 1389.24 150.274 1397.99 Q150.274 1406.72 147.195 1411.33 Q144.14 1415.91 138.33 1415.91 Q132.519 1415.91 129.441 1411.33 Q126.385 1406.72 126.385 1397.99 Q126.385 1389.24 129.441 1384.66 Q132.519 1380.05 138.33 1380.05 Z" fill="#000000" fill-rule="evenodd" fill-opacity="1" /><path clip-path="url(#clip540)" d="M 0 0 M168.491 1383.76 Q164.88 1383.76 163.052 1387.32 Q161.246 1390.86 161.246 1397.99 Q161.246 1405.1 163.052 1408.66 Q164.88 1412.21 168.491 1412.21 Q172.126 1412.21 173.931 1408.66 Q175.76 1405.1 175.76 1397.99 Q175.76 1390.86 173.931 1387.32 Q172.126 1383.76 168.491 1383.76 M168.491 1380.05 Q174.302 1380.05 177.357 1384.66 Q180.436 1389.24 180.436 1397.99 Q180.436 1406.72 177.357 1411.33 Q174.302 1415.91 168.491 1415.91 Q162.681 1415.91 159.603 1411.33 Q156.547 1406.72 156.547 1397.99 Q156.547 1389.24 159.603 1384.66 Q162.681 1380.05 168.491 1380.05 Z" fill="#000000" fill-rule="evenodd" fill-opacity="1" /><path clip-path="url(#clip540)" d="M 0 0 M63.9319 1127.57 Q60.3208 1127.57 58.4921 1131.14 Q56.6865 1134.68 56.6865 1141.81 Q56.6865 1148.92 58.4921 1152.48 Q60.3208 1156.02 63.9319 1156.02 Q67.5661 1156.02 69.3717 1152.48 Q71.2004 1148.92 71.2004 1141.81 Q71.2004 1134.68 69.3717 1131.14 Q67.5661 1127.57 63.9319 1127.57 M63.9319 1123.87 Q69.742 1123.87 72.7976 1128.48 Q75.8763 1133.06 75.8763 1141.81 Q75.8763 1150.54 72.7976 1155.14 Q69.742 1159.73 63.9319 1159.73 Q58.1217 1159.73 55.043 1155.14 Q51.9875 1150.54 51.9875 1141.81 Q51.9875 1133.06 55.043 1128.48 Q58.1217 1123.87 63.9319 1123.87 Z" fill="#000000" fill-rule="evenodd" fill-opacity="1" /><path clip-path="url(#clip540)" d="M 0 0 M84.0938 1153.18 L88.978 1153.18 L88.978 1159.06 L84.0938 1159.06 L84.0938 1153.18 Z" fill="#000000" fill-rule="evenodd" fill-opacity="1" /><path clip-path="url(#clip540)" d="M 0 0 M109.163 1127.57 Q105.552 1127.57 103.723 1131.14 Q101.918 1134.68 101.918 1141.81 Q101.918 1148.92 103.723 1152.48 Q105.552 1156.02 109.163 1156.02 Q112.797 1156.02 114.603 1152.48 Q116.432 1148.92 116.432 1141.81 Q116.432 1134.68 114.603 1131.14 Q112.797 1127.57 109.163 1127.57 M109.163 1123.87 Q114.973 1123.87 118.029 1128.48 Q121.107 1133.06 121.107 1141.81 Q121.107 1150.54 118.029 1155.14 Q114.973 1159.73 109.163 1159.73 Q103.353 1159.73 100.274 1155.14 Q97.2187 1150.54 97.2187 1141.81 Q97.2187 1133.06 100.274 1128.48 Q103.353 1123.87 109.163 1123.87 Z" fill="#000000" fill-rule="evenodd" fill-opacity="1" /><path clip-path="url(#clip540)" d="M 0 0 M133.353 1155.12 L149.672 1155.12 L149.672 1159.06 L127.728 1159.06 L127.728 1155.12 Q130.39 1152.37 134.973 1147.74 Q139.58 1143.08 140.76 1141.74 Q143.006 1139.22 143.885 1137.48 Q144.788 1135.72 144.788 1134.03 Q144.788 1131.28 142.843 1129.54 Q140.922 1127.81 137.82 1127.81 Q135.621 1127.81 133.168 1128.57 Q130.737 1129.33 127.959 1130.88 L127.959 1126.16 Q130.783 1125.03 133.237 1124.45 Q135.691 1123.87 137.728 1123.87 Q143.098 1123.87 146.293 1126.56 Q149.487 1129.24 149.487 1133.73 Q149.487 1135.86 148.677 1137.78 Q147.89 1139.68 145.783 1142.27 Q145.205 1142.94 142.103 1146.16 Q139.001 1149.36 133.353 1155.12 Z" fill="#000000" fill-rule="evenodd" fill-opacity="1" /><path clip-path="url(#clip540)" d="M 0 0 M159.533 1124.5 L177.89 1124.5 L177.89 1128.43 L163.816 1128.43 L163.816 1136.9 Q164.834 1136.56 165.853 1136.39 Q166.871 1136.21 167.89 1136.21 Q173.677 1136.21 177.056 1139.38 Q180.436 1142.55 180.436 1147.97 Q180.436 1153.55 176.964 1156.65 Q173.491 1159.73 167.172 1159.73 Q164.996 1159.73 162.728 1159.36 Q160.482 1158.99 158.075 1158.24 L158.075 1153.55 Q160.158 1154.68 162.38 1155.24 Q164.603 1155.79 167.079 1155.79 Q171.084 1155.79 173.422 1153.68 Q175.76 1151.58 175.76 1147.97 Q175.76 1144.36 173.422 1142.25 Q171.084 1140.14 167.079 1140.14 Q165.204 1140.14 163.329 1140.56 Q161.478 1140.98 159.533 1141.86 L159.533 1124.5 Z" fill="#000000" fill-rule="evenodd" fill-opacity="1" /><path clip-path="url(#clip540)" d="M 0 0 M62.9365 871.391 Q59.3254 871.391 57.4967 874.956 Q55.6912 878.498 55.6912 885.627 Q55.6912 892.734 57.4967 896.299 Q59.3254 899.84 62.9365 899.84 Q66.5707 899.84 68.3763 896.299 Q70.205 892.734 70.205 885.627 Q70.205 878.498 68.3763 874.956 Q66.5707 871.391 62.9365 871.391 M62.9365 867.688 Q68.7467 867.688 71.8022 872.294 Q74.8809 876.878 74.8809 885.627 Q74.8809 894.354 71.8022 898.961 Q68.7467 903.544 62.9365 903.544 Q57.1264 903.544 54.0477 898.961 Q50.9921 894.354 50.9921 885.627 Q50.9921 876.878 54.0477 872.294 Q57.1264 867.688 62.9365 867.688 Z" fill="#000000" fill-rule="evenodd" fill-opacity="1" /><path clip-path="url(#clip540)" d="M 0 0 M83.0984 896.993 L87.9827 896.993 L87.9827 902.873 L83.0984 902.873 L83.0984 896.993 Z" fill="#000000" fill-rule="evenodd" fill-opacity="1" /><path clip-path="url(#clip540)" d="M 0 0 M108.168 871.391 Q104.557 871.391 102.728 874.956 Q100.922 878.498 100.922 885.627 Q100.922 892.734 102.728 896.299 Q104.557 899.84 108.168 899.84 Q111.802 899.84 113.608 896.299 Q115.436 892.734 115.436 885.627 Q115.436 878.498 113.608 874.956 Q111.802 871.391 108.168 871.391 M108.168 867.688 Q113.978 867.688 117.033 872.294 Q120.112 876.878 120.112 885.627 Q120.112 894.354 117.033 898.961 Q113.978 903.544 108.168 903.544 Q102.358 903.544 99.2789 898.961 Q96.2234 894.354 96.2234 885.627 Q96.2234 876.878 99.2789 872.294 Q102.358 867.688 108.168 867.688 Z" fill="#000000" fill-rule="evenodd" fill-opacity="1" /><path clip-path="url(#clip540)" d="M 0 0 M128.376 868.313 L146.732 868.313 L146.732 872.248 L132.658 872.248 L132.658 880.72 Q133.677 880.373 134.695 880.211 Q135.714 880.026 136.732 880.026 Q142.519 880.026 145.899 883.197 Q149.279 886.368 149.279 891.785 Q149.279 897.364 145.806 900.465 Q142.334 903.544 136.015 903.544 Q133.839 903.544 131.57 903.174 Q129.325 902.803 126.918 902.063 L126.918 897.364 Q129.001 898.498 131.223 899.053 Q133.445 899.609 135.922 899.609 Q139.927 899.609 142.265 897.502 Q144.603 895.396 144.603 891.785 Q144.603 888.174 142.265 886.067 Q139.927 883.961 135.922 883.961 Q134.047 883.961 132.172 884.377 Q130.32 884.794 128.376 885.674 L128.376 868.313 Z" fill="#000000" fill-rule="evenodd" fill-opacity="1" /><path clip-path="url(#clip540)" d="M 0 0 M168.491 871.391 Q164.88 871.391 163.052 874.956 Q161.246 878.498 161.246 885.627 Q161.246 892.734 163.052 896.299 Q164.88 899.84 168.491 899.84 Q172.126 899.84 173.931 896.299 Q175.76 892.734 175.76 885.627 Q175.76 878.498 173.931 874.956 Q172.126 871.391 168.491 871.391 M168.491 867.688 Q174.302 867.688 177.357 872.294 Q180.436 876.878 180.436 885.627 Q180.436 894.354 177.357 898.961 Q174.302 903.544 168.491 903.544 Q162.681 903.544 159.603 898.961 Q156.547 894.354 156.547 885.627 Q156.547 876.878 159.603 872.294 Q162.681 867.688 168.491 867.688 Z" fill="#000000" fill-rule="evenodd" fill-opacity="1" /><path clip-path="url(#clip540)" d="M 0 0 M63.9319 615.209 Q60.3208 615.209 58.4921 618.774 Q56.6865 622.316 56.6865 629.445 Q56.6865 636.552 58.4921 640.116 Q60.3208 643.658 63.9319 643.658 Q67.5661 643.658 69.3717 640.116 Q71.2004 636.552 71.2004 629.445 Q71.2004 622.316 69.3717 618.774 Q67.5661 615.209 63.9319 615.209 M63.9319 611.505 Q69.742 611.505 72.7976 616.112 Q75.8763 620.695 75.8763 629.445 Q75.8763 638.172 72.7976 642.778 Q69.742 647.362 63.9319 647.362 Q58.1217 647.362 55.043 642.778 Q51.9875 638.172 51.9875 629.445 Q51.9875 620.695 55.043 616.112 Q58.1217 611.505 63.9319 611.505 Z" fill="#000000" fill-rule="evenodd" fill-opacity="1" /><path clip-path="url(#clip540)" d="M 0 0 M84.0938 640.811 L88.978 640.811 L88.978 646.69 L84.0938 646.69 L84.0938 640.811 Z" fill="#000000" fill-rule="evenodd" fill-opacity="1" /><path clip-path="url(#clip540)" d="M 0 0 M109.163 615.209 Q105.552 615.209 103.723 618.774 Q101.918 622.316 101.918 629.445 Q101.918 636.552 103.723 640.116 Q105.552 643.658 109.163 643.658 Q112.797 643.658 114.603 640.116 Q116.432 636.552 116.432 629.445 Q116.432 622.316 114.603 618.774 Q112.797 615.209 109.163 615.209 M109.163 611.505 Q114.973 611.505 118.029 616.112 Q121.107 620.695 121.107 629.445 Q121.107 638.172 118.029 642.778 Q114.973 647.362 109.163 647.362 Q103.353 647.362 100.274 642.778 Q97.2187 638.172 97.2187 629.445 Q97.2187 620.695 100.274 616.112 Q103.353 611.505 109.163 611.505 Z" fill="#000000" fill-rule="evenodd" fill-opacity="1" /><path clip-path="url(#clip540)" d="M 0 0 M128.144 612.13 L150.367 612.13 L150.367 614.121 L137.82 646.69 L132.936 646.69 L144.742 616.066 L128.144 616.066 L128.144 612.13 Z" fill="#000000" fill-rule="evenodd" fill-opacity="1" /><path clip-path="url(#clip540)" d="M 0 0 M159.533 612.13 L177.89 612.13 L177.89 616.066 L163.816 616.066 L163.816 624.538 Q164.834 624.191 165.853 624.029 Q166.871 623.843 167.89 623.843 Q173.677 623.843 177.056 627.015 Q180.436 630.186 180.436 635.603 Q180.436 641.181 176.964 644.283 Q173.491 647.362 167.172 647.362 Q164.996 647.362 162.728 646.991 Q160.482 646.621 158.075 645.88 L158.075 641.181 Q160.158 642.315 162.38 642.871 Q164.603 643.427 167.079 643.427 Q171.084 643.427 173.422 641.32 Q175.76 639.214 175.76 635.603 Q175.76 631.991 173.422 629.885 Q171.084 627.778 167.079 627.778 Q165.204 627.778 163.329 628.195 Q161.478 628.612 159.533 629.491 L159.533 612.13 Z" fill="#000000" fill-rule="evenodd" fill-opacity="1" /><path clip-path="url(#clip540)" d="M 0 0 M62.9365 359.027 Q59.3254 359.027 57.4967 362.592 Q55.6912 366.133 55.6912 373.263 Q55.6912 380.369 57.4967 383.934 Q59.3254 387.476 62.9365 387.476 Q66.5707 387.476 68.3763 383.934 Q70.205 380.369 70.205 373.263 Q70.205 366.133 68.3763 362.592 Q66.5707 359.027 62.9365 359.027 M62.9365 355.323 Q68.7467 355.323 71.8022 359.93 Q74.8809 364.513 74.8809 373.263 Q74.8809 381.99 71.8022 386.596 Q68.7467 391.179 62.9365 391.179 Q57.1264 391.179 54.0477 386.596 Q50.9921 381.99 50.9921 373.263 Q50.9921 364.513 54.0477 359.93 Q57.1264 355.323 62.9365 355.323 Z" fill="#000000" fill-rule="evenodd" fill-opacity="1" /><path clip-path="url(#clip540)" d="M 0 0 M83.0984 384.628 L87.9827 384.628 L87.9827 390.508 L83.0984 390.508 L83.0984 384.628 Z" fill="#000000" fill-rule="evenodd" fill-opacity="1" /><path clip-path="url(#clip540)" d="M 0 0 M98.978 386.573 L106.617 386.573 L106.617 360.207 L98.3067 361.874 L98.3067 357.615 L106.571 355.948 L111.246 355.948 L111.246 386.573 L118.885 386.573 L118.885 390.508 L98.978 390.508 L98.978 386.573 Z" fill="#000000" fill-rule="evenodd" fill-opacity="1" /><path clip-path="url(#clip540)" d="M 0 0 M138.33 359.027 Q134.719 359.027 132.89 362.592 Q131.084 366.133 131.084 373.263 Q131.084 380.369 132.89 383.934 Q134.719 387.476 138.33 387.476 Q141.964 387.476 143.769 383.934 Q145.598 380.369 145.598 373.263 Q145.598 366.133 143.769 362.592 Q141.964 359.027 138.33 359.027 M138.33 355.323 Q144.14 355.323 147.195 359.93 Q150.274 364.513 150.274 373.263 Q150.274 381.99 147.195 386.596 Q144.14 391.179 138.33 391.179 Q132.519 391.179 129.441 386.596 Q126.385 381.99 126.385 373.263 Q126.385 364.513 129.441 359.93 Q132.519 355.323 138.33 355.323 Z" fill="#000000" fill-rule="evenodd" fill-opacity="1" /><path clip-path="url(#clip540)" d="M 0 0 M168.491 359.027 Q164.88 359.027 163.052 362.592 Q161.246 366.133 161.246 373.263 Q161.246 380.369 163.052 383.934 Q164.88 387.476 168.491 387.476 Q172.126 387.476 173.931 383.934 Q175.76 380.369 175.76 373.263 Q175.76 366.133 173.931 362.592 Q172.126 359.027 168.491 359.027 M168.491 355.323 Q174.302 355.323 177.357 359.93 Q180.436 364.513 180.436 373.263 Q180.436 381.99 177.357 386.596 Q174.302 391.179 168.491 391.179 Q162.681 391.179 159.603 386.596 Q156.547 381.99 156.547 373.263 Q156.547 364.513 159.603 359.93 Q162.681 355.323 168.491 355.323 Z" fill="#000000" fill-rule="evenodd" fill-opacity="1" /><path clip-path="url(#clip540)" d="M 0 0 M459.285 12.096 L494.042 12.096 L494.042 18.9825 L467.468 18.9825 L467.468 36.8065 L491.449 36.8065 L491.449 43.6931 L467.468 43.6931 L467.468 72.576 L459.285 72.576 L459.285 12.096 Z" fill="#000000" fill-rule="evenodd" fill-opacity="1" /><path clip-path="url(#clip540)" d="M 0 0 M521.304 32.4315 Q515.309 32.4315 511.825 37.1306 Q508.341 41.7891 508.341 49.9314 Q508.341 58.0738 511.785 62.7728 Q515.268 67.4314 521.304 67.4314 Q527.259 67.4314 530.743 62.7323 Q534.227 58.0333 534.227 49.9314 Q534.227 41.8701 530.743 37.1711 Q527.259 32.4315 521.304 32.4315 M521.304 26.1121 Q531.026 26.1121 536.576 32.4315 Q542.126 38.7509 542.126 49.9314 Q542.126 61.0714 536.576 67.4314 Q531.026 73.7508 521.304 73.7508 Q511.542 73.7508 505.992 67.4314 Q500.483 61.0714 500.483 49.9314 Q500.483 38.7509 505.992 32.4315 Q511.542 26.1121 521.304 26.1121 Z" fill="#000000" fill-rule="evenodd" fill-opacity="1" /><path clip-path="url(#clip540)" d="M 0 0 M553.711 54.671 L553.711 27.2059 L561.165 27.2059 L561.165 54.3874 Q561.165 60.8284 563.677 64.0691 Q566.188 67.2693 571.211 67.2693 Q577.247 67.2693 580.731 63.421 Q584.255 59.5726 584.255 52.9291 L584.255 27.2059 L591.709 27.2059 L591.709 72.576 L584.255 72.576 L584.255 65.6084 Q581.541 69.7404 577.936 71.7658 Q574.371 73.7508 569.632 73.7508 Q561.813 73.7508 557.762 68.8897 Q553.711 64.0286 553.711 54.671 M572.467 26.1121 L572.467 26.1121 Z" fill="#000000" fill-rule="evenodd" fill-opacity="1" /><path clip-path="url(#clip540)" d="M 0 0 M633.352 34.1734 Q632.096 33.4443 630.598 33.1202 Q629.139 32.7556 627.357 32.7556 Q621.038 32.7556 617.635 36.8875 Q614.273 40.9789 614.273 48.6757 L614.273 72.576 L606.778 72.576 L606.778 27.2059 L614.273 27.2059 L614.273 34.2544 Q616.622 30.1225 620.389 28.1376 Q624.157 26.1121 629.544 26.1121 Q630.314 26.1121 631.246 26.2337 Q632.178 26.3147 633.312 26.5172 L633.352 34.1734 Z" fill="#000000" fill-rule="evenodd" fill-opacity="1" /><path clip-path="url(#clip540)" d="M 0 0 M641.171 27.2059 L648.624 27.2059 L648.624 72.576 L641.171 72.576 L641.171 27.2059 M641.171 9.54393 L648.624 9.54393 L648.624 18.9825 L641.171 18.9825 L641.171 9.54393 Z" fill="#000000" fill-rule="evenodd" fill-opacity="1" /><path clip-path="url(#clip540)" d="M 0 0 M703.028 48.0275 L703.028 51.6733 L668.757 51.6733 Q669.243 59.3701 673.375 63.421 Q677.548 67.4314 684.961 67.4314 Q689.255 67.4314 693.265 66.3781 Q697.316 65.3249 701.286 63.2184 L701.286 70.267 Q697.276 71.9684 693.063 72.8596 Q688.85 73.7508 684.515 73.7508 Q673.659 73.7508 667.299 67.4314 Q660.979 61.1119 660.979 50.3365 Q660.979 39.1965 666.975 32.6746 Q673.011 26.1121 683.219 26.1121 Q692.374 26.1121 697.681 32.0264 Q703.028 37.9003 703.028 48.0275 M695.574 45.84 Q695.493 39.7232 692.131 36.0774 Q688.809 32.4315 683.3 32.4315 Q677.062 32.4315 673.294 35.9558 Q669.567 39.4801 669 45.8805 L695.574 45.84 Z" fill="#000000" fill-rule="evenodd" fill-opacity="1" /><path clip-path="url(#clip540)" d="M 0 0 M741.552 34.1734 Q740.296 33.4443 738.797 33.1202 Q737.339 32.7556 735.557 32.7556 Q729.237 32.7556 725.834 36.8875 Q722.472 40.9789 722.472 48.6757 L722.472 72.576 L714.978 72.576 L714.978 27.2059 L722.472 27.2059 L722.472 34.2544 Q724.822 30.1225 728.589 28.1376 Q732.356 26.1121 737.744 26.1121 Q738.514 26.1121 739.445 26.2337 Q740.377 26.3147 741.511 26.5172 L741.552 34.1734 Z" fill="#000000" fill-rule="evenodd" fill-opacity="1" /><path clip-path="url(#clip540)" d="M 0 0 M783.114 14.324 L783.114 27.2059 L798.467 27.2059 L798.467 32.9987 L783.114 32.9987 L783.114 57.6282 Q783.114 63.1779 784.613 64.7578 Q786.152 66.3376 790.811 66.3376 L798.467 66.3376 L798.467 72.576 L790.811 72.576 Q782.182 72.576 778.901 69.3758 Q775.62 66.1351 775.62 57.6282 L775.62 32.9987 L770.151 32.9987 L770.151 27.2059 L775.62 27.2059 L775.62 14.324 L783.114 14.324 Z" fill="#000000" fill-rule="evenodd" fill-opacity="1" /><path clip-path="url(#clip540)" d="M 0 0 M834.561 34.1734 Q833.305 33.4443 831.806 33.1202 Q830.348 32.7556 828.565 32.7556 Q822.246 32.7556 818.843 36.8875 Q815.481 40.9789 815.481 48.6757 L815.481 72.576 L807.987 72.576 L807.987 27.2059 L815.481 27.2059 L815.481 34.2544 Q817.83 30.1225 821.598 28.1376 Q825.365 26.1121 830.753 26.1121 Q831.523 26.1121 832.454 26.2337 Q833.386 26.3147 834.52 26.5172 L834.561 34.1734 Z" fill="#000000" fill-rule="evenodd" fill-opacity="1" /><path clip-path="url(#clip540)" d="M 0 0 M862.998 49.7694 Q853.965 49.7694 850.481 51.8354 Q846.997 53.9013 846.997 58.8839 Q846.997 62.8538 849.59 65.2034 Q852.223 67.5124 856.719 67.5124 Q862.917 67.5124 866.644 63.1374 Q870.411 58.7219 870.411 51.4303 L870.411 49.7694 L862.998 49.7694 M877.865 46.6907 L877.865 72.576 L870.411 72.576 L870.411 65.6895 Q867.859 69.8214 864.051 71.8063 Q860.243 73.7508 854.734 73.7508 Q847.767 73.7508 843.635 69.8619 Q839.543 65.9325 839.543 59.3701 Q839.543 51.7138 844.647 47.825 Q849.792 43.9361 859.96 43.9361 L870.411 43.9361 L870.411 43.2069 Q870.411 38.0623 867.008 35.2672 Q863.646 32.4315 857.529 32.4315 Q853.64 32.4315 849.954 33.3632 Q846.268 34.295 842.865 36.1584 L842.865 29.2718 Q846.956 27.692 850.805 26.9223 Q854.653 26.1121 858.299 26.1121 Q868.143 26.1121 873.004 31.2163 Q877.865 36.3204 877.865 46.6907 Z" fill="#000000" fill-rule="evenodd" fill-opacity="1" /><path clip-path="url(#clip540)" d="M 0 0 M930.932 45.1919 L930.932 72.576 L923.478 72.576 L923.478 45.4349 Q923.478 38.994 920.966 35.7938 Q918.455 32.5936 913.432 32.5936 Q907.396 32.5936 903.912 36.4419 Q900.428 40.2903 900.428 46.9338 L900.428 72.576 L892.934 72.576 L892.934 27.2059 L900.428 27.2059 L900.428 34.2544 Q903.102 30.163 906.707 28.1376 Q910.353 26.1121 915.093 26.1121 Q922.911 26.1121 926.921 30.9732 Q930.932 35.7938 930.932 45.1919 Z" fill="#000000" fill-rule="evenodd" fill-opacity="1" /><path clip-path="url(#clip540)" d="M 0 0 M974.722 28.5427 L974.722 35.5912 Q971.562 33.9709 968.16 33.1607 Q964.757 32.3505 961.111 32.3505 Q955.561 32.3505 952.766 34.0519 Q950.011 35.7533 950.011 39.156 Q950.011 41.7486 951.996 43.2475 Q953.981 44.7058 959.977 46.0426 L962.529 46.6097 Q970.469 48.3111 973.79 51.4303 Q977.153 54.509 977.153 60.0587 Q977.153 66.3781 972.129 70.0644 Q967.147 73.7508 958.397 73.7508 Q954.751 73.7508 950.781 73.0216 Q946.852 72.3329 942.477 70.9151 L942.477 63.2184 Q946.609 65.3654 950.619 66.4591 Q954.629 67.5124 958.559 67.5124 Q963.825 67.5124 966.661 65.73 Q969.496 63.9071 969.496 60.6258 Q969.496 57.5877 967.43 55.9673 Q965.405 54.3469 958.478 52.8481 L955.885 52.2405 Q948.958 50.7821 945.88 47.7845 Q942.801 44.7463 942.801 39.4801 Q942.801 33.0797 947.338 29.5959 Q951.875 26.1121 960.22 26.1121 Q964.352 26.1121 967.997 26.7198 Q971.643 27.3274 974.722 28.5427 Z" fill="#000000" fill-rule="evenodd" fill-opacity="1" /><path clip-path="url(#clip540)" d="M 0 0 M1011.99 9.54393 L1011.99 15.7418 L1004.86 15.7418 Q1000.85 15.7418 999.27 17.3622 Q997.731 18.9825 997.731 23.1955 L997.731 27.2059 L1010.01 27.2059 L1010.01 32.9987 L997.731 32.9987 L997.731 72.576 L990.237 72.576 L990.237 32.9987 L983.107 32.9987 L983.107 27.2059 L990.237 27.2059 L990.237 24.0462 Q990.237 16.471 993.761 13.0277 Q997.286 9.54393 1004.94 9.54393 L1011.99 9.54393 Z" fill="#000000" fill-rule="evenodd" fill-opacity="1" /><path clip-path="url(#clip540)" d="M 0 0 M1035.81 32.4315 Q1029.81 32.4315 1026.33 37.1306 Q1022.85 41.7891 1022.85 49.9314 Q1022.85 58.0738 1026.29 62.7728 Q1029.77 67.4314 1035.81 67.4314 Q1041.76 67.4314 1045.25 62.7323 Q1048.73 58.0333 1048.73 49.9314 Q1048.73 41.8701 1045.25 37.1711 Q1041.76 32.4315 1035.81 32.4315 M1035.81 26.1121 Q1045.53 26.1121 1051.08 32.4315 Q1056.63 38.7509 1056.63 49.9314 Q1056.63 61.0714 1051.08 67.4314 Q1045.53 73.7508 1035.81 73.7508 Q1026.05 73.7508 1020.5 67.4314 Q1014.99 61.0714 1014.99 49.9314 Q1014.99 38.7509 1020.5 32.4315 Q1026.05 26.1121 1035.81 26.1121 Z" fill="#000000" fill-rule="evenodd" fill-opacity="1" /><path clip-path="url(#clip540)" d="M 0 0 M1095.28 34.1734 Q1094.02 33.4443 1092.52 33.1202 Q1091.06 32.7556 1089.28 32.7556 Q1082.96 32.7556 1079.56 36.8875 Q1076.2 40.9789 1076.2 48.6757 L1076.2 72.576 L1068.7 72.576 L1068.7 27.2059 L1076.2 27.2059 L1076.2 34.2544 Q1078.55 30.1225 1082.31 28.1376 Q1086.08 26.1121 1091.47 26.1121 Q1092.24 26.1121 1093.17 26.2337 Q1094.1 26.3147 1095.24 26.5172 L1095.28 34.1734 Z" fill="#000000" fill-rule="evenodd" fill-opacity="1" /><path clip-path="url(#clip540)" d="M 0 0 M1136.96 35.9153 Q1139.76 30.8922 1143.64 28.5022 Q1147.53 26.1121 1152.8 26.1121 Q1159.89 26.1121 1163.74 31.0947 Q1167.59 36.0368 1167.59 45.1919 L1167.59 72.576 L1160.09 72.576 L1160.09 45.4349 Q1160.09 38.913 1157.78 35.7533 Q1155.47 32.5936 1150.73 32.5936 Q1144.94 32.5936 1141.58 36.4419 Q1138.22 40.2903 1138.22 46.9338 L1138.22 72.576 L1130.72 72.576 L1130.72 45.4349 Q1130.72 38.8725 1128.41 35.7533 Q1126.1 32.5936 1121.28 32.5936 Q1115.57 32.5936 1112.21 36.4824 Q1108.85 40.3308 1108.85 46.9338 L1108.85 72.576 L1101.35 72.576 L1101.35 27.2059 L1108.85 27.2059 L1108.85 34.2544 Q1111.4 30.082 1114.96 28.0971 Q1118.53 26.1121 1123.43 26.1121 Q1128.37 26.1121 1131.82 28.6237 Q1135.3 31.1352 1136.96 35.9153 Z" fill="#000000" fill-rule="evenodd" fill-opacity="1" /><path clip-path="url(#clip540)" d="M 0 0 M1226.4 32.4315 Q1220.41 32.4315 1216.93 37.1306 Q1213.44 41.7891 1213.44 49.9314 Q1213.44 58.0738 1216.89 62.7728 Q1220.37 67.4314 1226.4 67.4314 Q1232.36 67.4314 1235.84 62.7323 Q1239.33 58.0333 1239.33 49.9314 Q1239.33 41.8701 1235.84 37.1711 Q1232.36 32.4315 1226.4 32.4315 M1226.4 26.1121 Q1236.13 26.1121 1241.68 32.4315 Q1247.23 38.7509 1247.23 49.9314 Q1247.23 61.0714 1241.68 67.4314 Q1236.13 73.7508 1226.4 73.7508 Q1216.64 73.7508 1211.09 67.4314 Q1205.58 61.0714 1205.58 49.9314 Q1205.58 38.7509 1211.09 32.4315 Q1216.64 26.1121 1226.4 26.1121 Z" fill="#000000" fill-rule="evenodd" fill-opacity="1" /><path clip-path="url(#clip540)" d="M 0 0 M1282.55 9.54393 L1282.55 15.7418 L1275.42 15.7418 Q1271.41 15.7418 1269.83 17.3622 Q1268.29 18.9825 1268.29 23.1955 L1268.29 27.2059 L1280.57 27.2059 L1280.57 32.9987 L1268.29 32.9987 L1268.29 72.576 L1260.8 72.576 L1260.8 32.9987 L1253.67 32.9987 L1253.67 27.2059 L1260.8 27.2059 L1260.8 24.0462 Q1260.8 16.471 1264.32 13.0277 Q1267.85 9.54393 1275.5 9.54393 L1282.55 9.54393 Z" fill="#000000" fill-rule="evenodd" fill-opacity="1" /><path clip-path="url(#clip540)" d="M 0 0 M1322.37 65.7705 L1322.37 89.8329 L1314.88 89.8329 L1314.88 27.2059 L1322.37 27.2059 L1322.37 34.0924 Q1324.72 30.0415 1328.28 28.0971 Q1331.89 26.1121 1336.87 26.1121 Q1345.14 26.1121 1350.28 32.6746 Q1355.47 39.2371 1355.47 49.9314 Q1355.47 60.6258 1350.28 67.1883 Q1345.14 73.7508 1336.87 73.7508 Q1331.89 73.7508 1328.28 71.8063 Q1324.72 69.8214 1322.37 65.7705 M1347.73 49.9314 Q1347.73 41.7081 1344.33 37.0496 Q1340.96 32.3505 1335.05 32.3505 Q1329.14 32.3505 1325.73 37.0496 Q1322.37 41.7081 1322.37 49.9314 Q1322.37 58.1548 1325.73 62.8538 Q1329.14 67.5124 1335.05 67.5124 Q1340.96 67.5124 1344.33 62.8538 Q1347.73 58.1548 1347.73 49.9314 Z" fill="#000000" fill-rule="evenodd" fill-opacity="1" /><path clip-path="url(#clip540)" d="M 0 0 M1405.54 45.1919 L1405.54 72.576 L1398.08 72.576 L1398.08 45.4349 Q1398.08 38.994 1395.57 35.7938 Q1393.06 32.5936 1388.04 32.5936 Q1382 32.5936 1378.52 36.4419 Q1375.03 40.2903 1375.03 46.9338 L1375.03 72.576 L1367.54 72.576 L1367.54 9.54393 L1375.03 9.54393 L1375.03 34.2544 Q1377.71 30.163 1381.31 28.1376 Q1384.96 26.1121 1389.7 26.1121 Q1397.51 26.1121 1401.53 30.9732 Q1405.54 35.7938 1405.54 45.1919 Z" fill="#000000" fill-rule="evenodd" fill-opacity="1" /><path clip-path="url(#clip540)" d="M 0 0 M1437.98 32.4315 Q1431.99 32.4315 1428.5 37.1306 Q1425.02 41.7891 1425.02 49.9314 Q1425.02 58.0738 1428.46 62.7728 Q1431.95 67.4314 1437.98 67.4314 Q1443.94 67.4314 1447.42 62.7323 Q1450.91 58.0333 1450.91 49.9314 Q1450.91 41.8701 1447.42 37.1711 Q1443.94 32.4315 1437.98 32.4315 M1437.98 26.1121 Q1447.71 26.1121 1453.26 32.4315 Q1458.81 38.7509 1458.81 49.9314 Q1458.81 61.0714 1453.26 67.4314 Q1447.71 73.7508 1437.98 73.7508 Q1428.22 73.7508 1422.67 67.4314 Q1417.16 61.0714 1417.16 49.9314 Q1417.16 38.7509 1422.67 32.4315 Q1428.22 26.1121 1437.98 26.1121 Z" fill="#000000" fill-rule="evenodd" fill-opacity="1" /><path clip-path="url(#clip540)" d="M 0 0 M1478.53 14.324 L1478.53 27.2059 L1493.89 27.2059 L1493.89 32.9987 L1478.53 32.9987 L1478.53 57.6282 Q1478.53 63.1779 1480.03 64.7578 Q1481.57 66.3376 1486.23 66.3376 L1493.89 66.3376 L1493.89 72.576 L1486.23 72.576 Q1477.6 72.576 1474.32 69.3758 Q1471.04 66.1351 1471.04 57.6282 L1471.04 32.9987 L1465.57 32.9987 L1465.57 27.2059 L1471.04 27.2059 L1471.04 14.324 L1478.53 14.324 Z" fill="#000000" fill-rule="evenodd" fill-opacity="1" /><path clip-path="url(#clip540)" d="M 0 0 M1521.27 32.4315 Q1515.27 32.4315 1511.79 37.1306 Q1508.31 41.7891 1508.31 49.9314 Q1508.31 58.0738 1511.75 62.7728 Q1515.23 67.4314 1521.27 67.4314 Q1527.22 67.4314 1530.71 62.7323 Q1534.19 58.0333 1534.19 49.9314 Q1534.19 41.8701 1530.71 37.1711 Q1527.22 32.4315 1521.27 32.4315 M1521.27 26.1121 Q1530.99 26.1121 1536.54 32.4315 Q1542.09 38.7509 1542.09 49.9314 Q1542.09 61.0714 1536.54 67.4314 Q1530.99 73.7508 1521.27 73.7508 Q1511.51 73.7508 1505.96 67.4314 Q1500.45 61.0714 1500.45 49.9314 Q1500.45 38.7509 1505.96 32.4315 Q1511.51 26.1121 1521.27 26.1121 Z" fill="#000000" fill-rule="evenodd" fill-opacity="1" /><path clip-path="url(#clip540)" d="M 0 0 M1592.16 45.1919 L1592.16 72.576 L1584.71 72.576 L1584.71 45.4349 Q1584.71 38.994 1582.2 35.7938 Q1579.68 32.5936 1574.66 32.5936 Q1568.63 32.5936 1565.14 36.4419 Q1561.66 40.2903 1561.66 46.9338 L1561.66 72.576 L1554.16 72.576 L1554.16 27.2059 L1561.66 27.2059 L1561.66 34.2544 Q1564.33 30.163 1567.94 28.1376 Q1571.58 26.1121 1576.32 26.1121 Q1584.14 26.1121 1588.15 30.9732 Q1592.16 35.7938 1592.16 45.1919 Z" fill="#000000" fill-rule="evenodd" fill-opacity="1" /><path clip-path="url(#clip540)" d="M 0 0 M1666.05 28.9478 L1666.05 35.9153 Q1662.89 34.1734 1659.69 33.3227 Q1656.53 32.4315 1653.29 32.4315 Q1646.04 32.4315 1642.03 37.0496 Q1638.02 41.6271 1638.02 49.9314 Q1638.02 58.2358 1642.03 62.8538 Q1646.04 67.4314 1653.29 67.4314 Q1656.53 67.4314 1659.69 66.5807 Q1662.89 65.6895 1666.05 63.9476 L1666.05 70.8341 Q1662.93 72.2924 1659.57 73.0216 Q1656.25 73.7508 1652.48 73.7508 Q1642.23 73.7508 1636.19 67.3098 Q1630.16 60.8689 1630.16 49.9314 Q1630.16 38.832 1636.23 32.472 Q1642.35 26.1121 1652.96 26.1121 Q1656.41 26.1121 1659.69 26.8413 Q1662.97 27.5299 1666.05 28.9478 Z" fill="#000000" fill-rule="evenodd" fill-opacity="1" /><path clip-path="url(#clip540)" d="M 0 0 M1696.59 32.4315 Q1690.6 32.4315 1687.11 37.1306 Q1683.63 41.7891 1683.63 49.9314 Q1683.63 58.0738 1687.07 62.7728 Q1690.56 67.4314 1696.59 67.4314 Q1702.55 67.4314 1706.03 62.7323 Q1709.52 58.0333 1709.52 49.9314 Q1709.52 41.8701 1706.03 37.1711 Q1702.55 32.4315 1696.59 32.4315 M1696.59 26.1121 Q1706.32 26.1121 1711.87 32.4315 Q1717.41 38.7509 1717.41 49.9314 Q1717.41 61.0714 1711.87 67.4314 Q1706.32 73.7508 1696.59 73.7508 Q1686.83 73.7508 1681.28 67.4314 Q1675.77 61.0714 1675.77 49.9314 Q1675.77 38.7509 1681.28 32.4315 Q1686.83 26.1121 1696.59 26.1121 Z" fill="#000000" fill-rule="evenodd" fill-opacity="1" /><path clip-path="url(#clip540)" d="M 0 0 M1756.06 34.1734 Q1754.8 33.4443 1753.31 33.1202 Q1751.85 32.7556 1750.07 32.7556 Q1743.75 32.7556 1740.34 36.8875 Q1736.98 40.9789 1736.98 48.6757 L1736.98 72.576 L1729.49 72.576 L1729.49 27.2059 L1736.98 27.2059 L1736.98 34.2544 Q1739.33 30.1225 1743.1 28.1376 Q1746.86 26.1121 1752.25 26.1121 Q1753.02 26.1121 1753.95 26.2337 Q1754.89 26.3147 1756.02 26.5172 L1756.06 34.1734 Z" fill="#000000" fill-rule="evenodd" fill-opacity="1" /><path clip-path="url(#clip540)" d="M 0 0 M1788.71 34.1734 Q1787.45 33.4443 1785.96 33.1202 Q1784.5 32.7556 1782.72 32.7556 Q1776.4 32.7556 1772.99 36.8875 Q1769.63 40.9789 1769.63 48.6757 L1769.63 72.576 L1762.14 72.576 L1762.14 27.2059 L1769.63 27.2059 L1769.63 34.2544 Q1771.98 30.1225 1775.75 28.1376 Q1779.52 26.1121 1784.9 26.1121 Q1785.67 26.1121 1786.6 26.2337 Q1787.54 26.3147 1788.67 26.5172 L1788.71 34.1734 Z" fill="#000000" fill-rule="evenodd" fill-opacity="1" /><path clip-path="url(#clip540)" d="M 0 0 M1833.51 48.0275 L1833.51 51.6733 L1799.24 51.6733 Q1799.73 59.3701 1803.86 63.421 Q1808.03 67.4314 1815.45 67.4314 Q1819.74 67.4314 1823.75 66.3781 Q1827.8 65.3249 1831.77 63.2184 L1831.77 70.267 Q1827.76 71.9684 1823.55 72.8596 Q1819.34 73.7508 1815 73.7508 Q1804.14 73.7508 1797.78 67.4314 Q1791.47 61.1119 1791.47 50.3365 Q1791.47 39.1965 1797.46 32.6746 Q1803.5 26.1121 1813.7 26.1121 Q1822.86 26.1121 1828.17 32.0264 Q1833.51 37.9003 1833.51 48.0275 M1826.06 45.84 Q1825.98 39.7232 1822.62 36.0774 Q1819.29 32.4315 1813.79 32.4315 Q1807.55 32.4315 1803.78 35.9558 Q1800.05 39.4801 1799.49 45.8805 L1826.06 45.84 Z" fill="#000000" fill-rule="evenodd" fill-opacity="1" /><path clip-path="url(#clip540)" d="M 0 0 M1845.75 9.54393 L1853.2 9.54393 L1853.2 72.576 L1845.75 72.576 L1845.75 9.54393 Z" fill="#000000" fill-rule="evenodd" fill-opacity="1" /><path clip-path="url(#clip540)" d="M 0 0 M1889.42 49.7694 Q1880.38 49.7694 1876.9 51.8354 Q1873.42 53.9013 1873.42 58.8839 Q1873.42 62.8538 1876.01 65.2034 Q1878.64 67.5124 1883.14 67.5124 Q1889.34 67.5124 1893.06 63.1374 Q1896.83 58.7219 1896.83 51.4303 L1896.83 49.7694 L1889.42 49.7694 M1904.28 46.6907 L1904.28 72.576 L1896.83 72.576 L1896.83 65.6895 Q1894.28 69.8214 1890.47 71.8063 Q1886.66 73.7508 1881.15 73.7508 Q1874.18 73.7508 1870.05 69.8619 Q1865.96 65.9325 1865.96 59.3701 Q1865.96 51.7138 1871.07 47.825 Q1876.21 43.9361 1886.38 43.9361 L1896.83 43.9361 L1896.83 43.2069 Q1896.83 38.0623 1893.43 35.2672 Q1890.06 32.4315 1883.95 32.4315 Q1880.06 32.4315 1876.37 33.3632 Q1872.69 34.295 1869.28 36.1584 L1869.28 29.2718 Q1873.37 27.692 1877.22 26.9223 Q1881.07 26.1121 1884.72 26.1121 Q1894.56 26.1121 1899.42 31.2163 Q1904.28 36.3204 1904.28 46.6907 Z" fill="#000000" fill-rule="evenodd" fill-opacity="1" /><path clip-path="url(#clip540)" d="M 0 0 M1927.01 14.324 L1927.01 27.2059 L1942.36 27.2059 L1942.36 32.9987 L1927.01 32.9987 L1927.01 57.6282 Q1927.01 63.1779 1928.51 64.7578 Q1930.05 66.3376 1934.71 66.3376 L1942.36 66.3376 L1942.36 72.576 L1934.71 72.576 Q1926.08 72.576 1922.8 69.3758 Q1919.51 66.1351 1919.51 57.6282 L1919.51 32.9987 L1914.05 32.9987 L1914.05 27.2059 L1919.51 27.2059 L1919.51 14.324 L1927.01 14.324 Z" fill="#000000" fill-rule="evenodd" fill-opacity="1" /><path clip-path="url(#clip540)" d="M 0 0 M1952.16 27.2059 L1959.62 27.2059 L1959.62 72.576 L1952.16 72.576 L1952.16 27.2059 M1952.16 9.54393 L1959.62 9.54393 L1959.62 18.9825 L1952.16 18.9825 L1952.16 9.54393 Z" fill="#000000" fill-rule="evenodd" fill-opacity="1" /><path clip-path="url(#clip540)" d="M 0 0 M1992.8 32.4315 Q1986.8 32.4315 1983.32 37.1306 Q1979.83 41.7891 1979.83 49.9314 Q1979.83 58.0738 1983.28 62.7728 Q1986.76 67.4314 1992.8 67.4314 Q1998.75 67.4314 2002.23 62.7323 Q2005.72 58.0333 2005.72 49.9314 Q2005.72 41.8701 2002.23 37.1711 Q1998.75 32.4315 1992.8 32.4315 M1992.8 26.1121 Q2002.52 26.1121 2008.07 32.4315 Q2013.62 38.7509 2013.62 49.9314 Q2013.62 61.0714 2008.07 67.4314 Q2002.52 73.7508 1992.8 73.7508 Q1983.03 73.7508 1977.48 67.4314 Q1971.97 61.0714 1971.97 49.9314 Q1971.97 38.7509 1977.48 32.4315 Q1983.03 26.1121 1992.8 26.1121 Z" fill="#000000" fill-rule="evenodd" fill-opacity="1" /><path clip-path="url(#clip540)" d="M 0 0 M2063.69 45.1919 L2063.69 72.576 L2056.23 72.576 L2056.23 45.4349 Q2056.23 38.994 2053.72 35.7938 Q2051.21 32.5936 2046.19 32.5936 Q2040.15 32.5936 2036.67 36.4419 Q2033.18 40.2903 2033.18 46.9338 L2033.18 72.576 L2025.69 72.576 L2025.69 27.2059 L2033.18 27.2059 L2033.18 34.2544 Q2035.86 30.163 2039.46 28.1376 Q2043.11 26.1121 2047.85 26.1121 Q2055.67 26.1121 2059.68 30.9732 Q2063.69 35.7938 2063.69 45.1919 Z" fill="#000000" fill-rule="evenodd" fill-opacity="1" /><path clip-path="url(#clip540)" d="M 0 0 M2107.48 28.5427 L2107.48 35.5912 Q2104.32 33.9709 2100.91 33.1607 Q2097.51 32.3505 2093.87 32.3505 Q2088.32 32.3505 2085.52 34.0519 Q2082.77 35.7533 2082.77 39.156 Q2082.77 41.7486 2084.75 43.2475 Q2086.74 44.7058 2092.73 46.0426 L2095.28 46.6097 Q2103.22 48.3111 2106.54 51.4303 Q2109.91 54.509 2109.91 60.0587 Q2109.91 66.3781 2104.88 70.0644 Q2099.9 73.7508 2091.15 73.7508 Q2087.51 73.7508 2083.54 73.0216 Q2079.61 72.3329 2075.23 70.9151 L2075.23 63.2184 Q2079.36 65.3654 2083.37 66.4591 Q2087.38 67.5124 2091.31 67.5124 Q2096.58 67.5124 2099.42 65.73 Q2102.25 63.9071 2102.25 60.6258 Q2102.25 57.5877 2100.18 55.9673 Q2098.16 54.3469 2091.23 52.8481 L2088.64 52.2405 Q2081.71 50.7821 2078.63 47.7845 Q2075.56 44.7463 2075.56 39.4801 Q2075.56 33.0797 2080.09 29.5959 Q2084.63 26.1121 2092.97 26.1121 Q2097.11 26.1121 2100.75 26.7198 Q2104.4 27.3274 2107.48 28.5427 Z" fill="#000000" fill-rule="evenodd" fill-opacity="1" /><polyline clip-path="url(#clip542)" style="stroke:#009af9; stroke-width:4; stroke-opacity:1; fill:none" points="
  276.898,773.104 278.936,1077.63 280.973,984.187 283.011,711.158 285.049,1216.86 287.087,1294.38 289.125,729.206 291.162,1186.15 293.2,1186.05 295.238,980.748 
  297.276,1096.5 299.314,1250.5 301.352,1165.38 303.389,1057.57 305.427,1104.58 307.465,750.823 309.503,1085 311.541,1319.93 313.578,1040.92 315.616,1029.49 
  317.654,1106.96 319.692,745.488 321.73,1265.69 323.767,1278.65 325.805,1173.23 327.843,974.359 329.881,797.788 331.919,1004.51 333.957,1244.97 335.994,1172.63 
  338.032,1248.51 340.07,721.245 342.108,1312.18 344.146,1003.04 346.183,1056.73 348.221,160.256 350.259,1240.37 352.297,928.718 354.335,982.697 356.372,814.82 
  358.41,1304.99 360.448,991.604 362.486,1121.63 364.524,832.848 366.562,1078.88 368.599,1281.24 370.637,1070.18 372.675,1221.8 374.713,763.364 376.751,1283.35 
  378.788,1323.61 380.826,1131.25 382.864,1311.23 384.902,1182.22 386.94,1341.34 388.977,913.407 391.015,1202.36 393.053,1209.42 395.091,733.39 397.129,974.012 
  399.166,1201.42 401.204,1099.55 403.242,1005.16 405.28,1162.98 407.318,1130.05 409.356,1074.27 411.393,850.679 413.431,1062.91 415.469,995.03 417.507,1098.65 
  419.545,1028.49 421.582,766.719 423.62,1372.3 425.658,1117.18 427.696,1210.9 429.734,1060.13 431.771,1076.71 433.809,1225.01 435.847,1034.39 437.885,1211.02 
  439.923,1053.49 441.961,1125.47 443.998,997.211 446.036,1073.37 448.074,771.557 450.112,1034.97 452.15,1110.91 454.187,863.191 456.225,1078.24 458.263,506.291 
  460.301,1119.58 462.339,1081.61 464.376,1042.16 466.414,1127.62 468.452,752.931 470.49,1049.3 472.528,908.317 474.566,1020.41 476.603,1251.22 478.641,1027.95 
  480.679,1203.03 482.717,1185.47 484.755,1140.15 486.792,1148.72 488.83,1067.84 490.868,1227.71 492.906,1081.94 494.944,965.383 496.981,842.016 499.019,1077.08 
  501.057,813.345 503.095,697.626 505.133,1196.52 507.171,1240.91 509.208,880.445 511.246,1028.06 513.284,1033.33 515.322,1194.78 517.36,945.278 519.397,1327.39 
  521.435,1001.42 523.473,1163.32 525.511,1177.73 527.549,1165.84 529.586,1083.76 531.624,1342.43 533.662,951.463 535.7,1212.54 537.738,1119.01 539.776,1229.03 
  541.813,1037.33 543.851,944.415 545.889,857.75 547.927,1004.84 549.965,684.844 552.002,1268.12 554.04,1216.13 556.078,1180.64 558.116,1134.7 560.154,820.883 
  562.191,1031.33 564.229,1204.54 566.267,1260.74 568.305,838.664 570.343,1260.78 572.381,817.48 574.418,1020.16 576.456,1253.18 578.494,1213.99 580.532,1209.1 
  582.57,963.599 584.607,1099.84 586.645,1109.99 588.683,1267.75 590.721,841.707 592.759,961.487 594.796,1071.68 596.834,666.206 598.872,1246.26 600.91,1166.03 
  602.948,806.158 604.986,863.139 607.023,1176.88 609.061,1353.76 611.099,1162.28 613.137,950.245 615.175,991.005 617.212,1191.95 619.25,1286.23 621.288,1038.54 
  623.326,1248.26 625.364,957.739 627.401,1294.35 629.439,1040.92 631.477,918.096 633.515,997.318 635.553,972.594 637.591,1002.48 639.628,907.758 641.666,1186.57 
  643.704,1299.76 645.742,817.845 647.78,1075.66 649.817,802.933 651.855,983.06 653.893,1048.48 655.931,1174.4 657.969,1087.45 660.006,768.349 662.044,868.465 
  664.082,1341.44 666.12,1086.56 668.158,1268.79 670.196,1123.57 672.233,1084.33 674.271,1227.82 676.309,1208.07 678.347,1171.66 680.385,1050.86 682.422,1112.22 
  684.46,1256.32 686.498,1297.73 688.536,977.148 690.574,1278.58 692.611,845.404 694.649,1128.26 696.687,945.463 698.725,624.182 700.763,835.18 702.801,991.434 
  704.838,963.692 706.876,1327.42 708.914,1035.8 710.952,1084.49 712.99,713.306 715.027,846.313 717.065,829.511 719.103,1229.2 721.141,1104.41 723.179,1322.8 
  725.216,1258.14 727.254,1032.06 729.292,1093.07 731.33,1056.27 733.368,1189.17 735.406,1044.88 737.443,820.272 739.481,1227.29 741.519,1314.96 743.557,1138.67 
  745.595,945.725 747.632,1268.67 749.67,1117.25 751.708,999.166 753.746,1268.26 755.784,826.948 757.821,911.906 759.859,779.264 761.897,1208.28 763.935,614.262 
  765.973,1213.6 768.011,759.047 770.048,1073.33 772.086,1352.02 774.124,1210.77 776.162,949.488 778.2,1161.18 780.237,1022.34 782.275,1074.35 784.313,1138.61 
  786.351,1282.01 788.389,1216.71 790.426,1312.68 792.464,837.099 794.502,1049.82 796.54,964.619 798.578,1178.75 800.615,1185.68 802.653,1208.1 804.691,1017.45 
  806.729,1121.43 808.767,1351.24 810.805,1220.91 812.842,1066.58 814.88,755.302 816.918,682.466 818.956,1138.83 820.994,1171.38 823.031,934.408 825.069,1238.72 
  827.107,861.693 829.145,1102.98 831.183,1059.85 833.22,1239.52 835.258,1167.65 837.296,986.893 839.334,1002.87 841.372,1108.41 843.41,880.724 845.447,970.791 
  847.485,1223.23 849.523,1115.24 851.561,1122.02 853.599,1211.36 855.636,1285.04 857.674,1099.39 859.712,980.779 861.75,1217.21 863.788,772.008 865.825,1093.94 
  867.863,1156.68 869.901,897.596 871.939,911.458 873.977,986.604 876.015,907.1 878.052,1220.98 880.09,807.959 882.128,545.13 884.166,1161.5 886.204,1096.37 
  888.241,1151.4 890.279,1263.03 892.317,989.26 894.355,1240.75 896.393,1077.77 898.43,975.878 900.468,1053.4 902.506,965.234 904.544,1146.79 906.582,1201.23 
  908.62,1153.58 910.657,943.014 912.695,1303.56 914.733,1110.23 916.771,937.783 918.809,1110.61 920.846,846.279 922.884,1150.05 924.922,1269.41 926.96,1237.28 
  928.998,1036.82 931.035,988.047 933.073,1229.18 935.111,1363.43 937.149,885.551 939.187,866.888 941.225,1282.26 943.262,1053.22 945.3,1044.74 947.338,1105.97 
  949.376,860.708 951.414,1176.54 953.451,885.585 955.489,1300.02 957.527,1260.68 959.565,1013.1 961.603,1234.91 963.64,1051.44 965.678,862.841 967.716,885.144 
  969.754,1203.28 971.792,814.816 973.83,337.473 975.867,1239.06 977.905,1067.95 979.943,1306.91 981.981,1063.63 984.019,1044.47 986.056,1069.99 988.094,796.034 
  990.132,542.232 992.17,1021.11 994.208,981.493 996.245,1160.24 998.283,1208.95 1000.32,895.356 1002.36,1246.97 1004.4,924.692 1006.43,1224.83 1008.47,1144.64 
  1010.51,1163.55 1012.55,834.427 1014.59,1137.99 1016.62,929.561 1018.66,871.39 1020.7,545.577 1022.74,1283.66 1024.77,720.162 1026.81,1175.38 1028.85,1166.29 
  1030.89,1185.72 1032.93,1062.17 1034.96,1188.72 1037,1094.74 1039.04,1386.31 1041.08,900.307 1043.12,1103.1 1045.15,1136.51 1047.19,1079.8 1049.23,968.768 
  1051.27,608.31 1053.3,1220.89 1055.34,838.38 1057.38,1044.28 1059.42,899.431 1061.46,1215.9 1063.49,1129.55 1065.53,985.804 1067.57,1143.44 1069.61,1269.89 
  1071.64,1140.47 1073.68,954.029 1075.72,817.11 1077.76,1116.56 1079.8,1246.96 1081.83,755.435 1083.87,1258.93 1085.91,1051.61 1087.95,1132.76 1089.98,1190.17 
  1092.02,962.455 1094.06,897.259 1096.1,748.064 1098.14,859.966 1100.17,1185.41 1102.21,1340.43 1104.25,1049.97 1106.29,1156.06 1108.33,1128.3 1110.36,1064.58 
  1112.4,1077.76 1114.44,903.493 1116.48,1197.44 1118.51,992.138 1120.55,1084.59 1122.59,774.689 1124.63,1218.29 1126.67,1121.78 1128.7,768.933 1130.74,1183.1 
  1132.78,1056.63 1134.82,1190.04 1136.85,1003.09 1138.89,1118.29 1140.93,887.636 1142.97,943.641 1145.01,977.359 1147.04,1178.42 1149.08,1225.06 1151.12,969.103 
  1153.16,1209.58 1155.19,1037.83 1157.23,1024.74 1159.27,1118.78 1161.31,762.809 1163.35,1001.08 1165.38,1139.78 1167.42,1159.46 1169.46,1207.72 1171.5,1053.36 
  1173.54,1144.32 1175.57,1285.87 1177.61,1144 1179.65,756.537 1181.69,981.269 1183.72,871.096 1185.76,981.132 1187.8,804.516 1189.84,1083.74 1191.88,1120.07 
  1193.91,733.612 1195.95,1139.44 1197.99,1076.93 1200.03,1153.79 1202.06,958.807 1204.1,871.905 1206.14,866.986 1208.18,1180.27 1210.22,1212.23 1212.25,937.771 
  1214.29,768.589 1216.33,1296.13 1218.37,1142.79 1220.4,846.716 1222.44,1250.93 1224.48,1175.97 1226.52,822.339 1228.56,1131.88 1230.59,696.31 1232.63,1094.53 
  1234.67,875.129 1236.71,859.944 1238.75,920.537 1240.78,743.147 1242.82,1136.25 1244.86,645.954 1246.9,734.15 1248.93,1144.97 1250.97,1270.41 1253.01,1190.96 
  1255.05,1092.56 1257.09,966.029 1259.12,998.639 1261.16,853.837 1263.2,993.55 1265.24,890.817 1267.27,730.219 1269.31,1163.44 1271.35,1152.82 1273.39,1332.65 
  1275.43,1110.71 1277.46,1005.47 1279.5,1018.02 1281.54,780.433 1283.58,688.73 1285.61,860.521 1287.65,1149.82 1289.69,1117.72 1291.73,1088.8 1293.77,1041.42 
  1295.8,1248.49 1297.84,1218.42 1299.88,1114.46 1301.92,721.815 1303.96,1125.04 1305.99,1244.99 1308.03,977.115 1310.07,913.57 1312.11,962.594 1314.14,1140.91 
  1316.18,815.818 1318.22,1277.51 1320.26,984.119 1322.3,1123.31 1324.33,1245.71 1326.37,919.654 1328.41,956.449 1330.45,1260.75 1332.48,1094.26 1334.52,1218.6 
  1336.56,873.499 1338.6,1217.22 1340.64,932.625 1342.67,1208.43 1344.71,1129.16 1346.75,1123.43 1348.79,1170.25 1350.82,1210.99 1352.86,773.873 1354.9,1099.73 
  1356.94,1339.6 1358.98,1386.4 1361.01,1225.26 1363.05,967.087 1365.09,813.167 1367.13,937.834 1369.17,640.919 1371.2,1264.47 1373.24,937.79 1375.28,1051.48 
  1377.32,1225.85 1379.35,1106.53 1381.39,902.977 1383.43,1022.14 1385.47,1056.89 1387.51,943.688 1389.54,564.388 1391.58,1075.73 1393.62,847.135 1395.66,792.901 
  1397.69,886.429 1399.73,1287.36 1401.77,1262.62 1403.81,1249.19 1405.85,1167.7 1407.88,1079.61 1409.92,922.677 1411.96,947.782 1414,976.555 1416.03,1226.95 
  1418.07,1248.82 1420.11,1080.26 1422.15,624.692 1424.19,999.697 1426.22,744.151 1428.26,1013.88 1430.3,1079.38 1432.34,1068.38 1434.38,905.68 1436.41,1083.03 
  1438.45,1128.75 1440.49,1148.45 1442.53,839.824 1444.56,1174.76 1446.6,1172.7 1448.64,951.888 1450.68,1017.39 1452.72,1095.72 1454.75,1021.91 1456.79,908.554 
  1458.83,668.53 1460.87,659.962 1462.9,1207.67 1464.94,1006.04 1466.98,645.333 1469.02,1105.46 1471.06,907.091 1473.09,1192.96 1475.13,1155.48 1477.17,1065.26 
  1479.21,830.938 1481.24,1012.93 1483.28,1104.12 1485.32,965.948 1487.36,938.698 1489.4,1226.39 1491.43,1221.76 1493.47,847.64 1495.51,1030.74 1497.55,995.073 
  1499.59,989.606 1501.62,1256.03 1503.66,1198.55 1505.7,1005.84 1507.74,1043.41 1509.77,958.453 1511.81,1232.72 1513.85,1037.85 1515.89,897.796 1517.93,1003.47 
  1519.96,1016.58 1522,1115.7 1524.04,853.577 1526.08,1238.99 1528.11,1207.1 1530.15,944.143 1532.19,1320.68 1534.23,811.828 1536.27,1090.98 1538.3,1120.1 
  1540.34,979.652 1542.38,1102.03 1544.42,1063.64 1546.45,1043.65 1548.49,709.101 1550.53,1181.24 1552.57,921.853 1554.61,1058.01 1556.64,1274.11 1558.68,1242.89 
  1560.72,961.586 1562.76,1149.72 1564.8,1073.82 1566.83,1159.29 1568.87,1028.95 1570.91,1040.27 1572.95,1202.78 1574.98,1185.53 1577.02,1004.92 1579.06,1053.96 
  1581.1,1223.16 1583.14,921.304 1585.17,610.506 1587.21,1255.13 1589.25,890.257 1591.29,989.199 1593.32,1010.97 1595.36,372.842 1597.4,968.128 1599.44,1112.63 
  1601.48,1111.76 1603.51,977.073 1605.55,1057.54 1607.59,1047.06 1609.63,1246.02 1611.66,1027.53 1613.7,825.218 1615.74,1154.36 1617.78,1225.72 1619.82,1167.8 
  1621.85,606.366 1623.89,1272.13 1625.93,1104.8 1627.97,898.885 1630.01,1310.08 1632.04,971.193 1634.08,1299.57 1636.12,850.174 1638.16,868.679 1640.19,977.858 
  1642.23,879.029 1644.27,909.398 1646.31,944.755 1648.35,1141.71 1650.38,1350.81 1652.42,1160.84 1654.46,873.194 1656.5,1097.7 1658.53,1001.8 1660.57,1167.98 
  1662.61,911.762 1664.65,1150.48 1666.69,1196.08 1668.72,782.69 1670.76,1350.79 1672.8,1227.82 1674.84,564.151 1676.87,729.589 1678.91,1173.98 1680.95,1110.02 
  1682.99,1014.65 1685.03,998.362 1687.06,1156.2 1689.1,751.447 1691.14,1011.49 1693.18,871.299 1695.22,1241.59 1697.25,1244.73 1699.29,839.481 1701.33,1061.34 
  1703.37,853.987 1705.4,1099.72 1707.44,959.903 1709.48,1170.64 1711.52,775.765 1713.56,1034.37 1715.59,1019.9 1717.63,956.489 1719.67,1134.35 1721.71,1165.33 
  1723.74,1048.23 1725.78,1101.95 1727.82,997.228 1729.86,1248.85 1731.9,1257.84 1733.93,1342.74 1735.97,1106.33 1738.01,900.124 1740.05,969.584 1742.08,856.353 
  1744.12,1254.69 1746.16,1090.1 1748.2,1242.39 1750.24,987.304 1752.27,1320.65 1754.31,1099.82 1756.35,912.834 1758.39,1091.06 1760.43,819.215 1762.46,1197.03 
  1764.5,978.947 1766.54,1101.1 1768.58,1198.95 1770.61,1047.17 1772.65,1051 1774.69,700.076 1776.73,1002.04 1778.77,1065.97 1780.8,1186.51 1782.84,1078.02 
  1784.88,1091.13 1786.92,848.568 1788.95,1247.96 1790.99,831.795 1793.03,909.181 1795.07,1119.68 1797.11,1025.69 1799.14,1136.89 1801.18,727.374 1803.22,1127.68 
  1805.26,1238.36 1807.29,637.089 1809.33,1025.9 1811.37,485.544 1813.41,1254.47 1815.45,980.523 1817.48,752.685 1819.52,1180.58 1821.56,1029.93 1823.6,792.298 
  1825.64,970.085 1827.67,972.327 1829.71,1051.5 1831.75,1272.06 1833.79,986.316 1835.82,1036.77 1837.86,1274.03 1839.9,1238.25 1841.94,1222.47 1843.98,803.149 
  1846.01,1171.01 1848.05,1178.3 1850.09,1071.24 1852.13,908.711 1854.16,1304.48 1856.2,1174.91 1858.24,1256.68 1860.28,1249.94 1862.32,864.114 1864.35,1221.76 
  1866.39,907.647 1868.43,924.341 1870.47,1025.76 1872.5,532.599 1874.54,1233.43 1876.58,996.744 1878.62,1187.08 1880.66,1312.24 1882.69,1234.4 1884.73,1032.27 
  1886.77,1059.58 1888.81,1005.95 1890.85,1222.02 1892.88,1149.55 1894.92,320.165 1896.96,1239.46 1899,738.292 1901.03,949.367 1903.07,819.455 1905.11,1219.2 
  1907.15,1186.17 1909.19,1289.7 1911.22,1118.94 1913.26,1111.45 1915.3,1129.62 1917.34,1360.57 1919.37,1058.12 1921.41,723.814 1923.45,760.398 1925.49,1184.49 
  1927.53,914.283 1929.56,1021.8 1931.6,331.134 1933.64,1198.92 1935.68,1072.33 1937.71,1103.53 1939.75,1242.31 1941.79,1269.81 1943.83,1353.21 1945.87,1189.93 
  1947.9,1066.27 1949.94,1206.58 1951.98,1080.59 1954.02,863.806 1956.06,882.827 1958.09,1256.8 1960.13,1096.42 1962.17,1252.4 1964.21,1199.89 1966.24,1081.9 
  1968.28,1348.35 1970.32,1141.17 1972.36,1041.27 1974.4,1121.63 1976.43,1276.09 1978.47,1005.55 1980.51,1252.03 1982.55,1139.7 1984.58,1289.66 1986.62,1152.64 
  1988.66,1237.49 1990.7,1117.44 1992.74,1151.47 1994.77,1137.02 1996.81,1119.79 1998.85,877.589 2000.89,1322.06 2002.92,1188.07 2004.96,1164.86 2007,776.062 
  2009.04,1165.97 2011.08,994.723 2013.11,705.724 2015.15,1299.09 2017.19,1036.96 2019.23,510.517 2021.26,661.51 2023.3,1152.63 2025.34,1117.9 2027.38,1200.17 
  2029.42,1085.96 2031.45,1126.7 2033.49,1056.78 2035.53,1091.39 2037.57,1022.06 2039.61,1233.16 2041.64,1166.79 2043.68,1277.12 2045.72,1286.5 2047.76,1089 
  2049.79,1173.43 2051.83,1219.82 2053.87,1264.71 2055.91,1210.06 2057.95,1261.06 2059.98,1120.04 2062.02,1173.44 2064.06,970.467 2066.1,1314.93 2068.13,1252.16 
  2070.17,1143.34 2072.21,1129.52 2074.25,894.188 2076.29,992.653 2078.32,1163.02 2080.36,711.194 2082.4,920.257 2084.44,1149.21 2086.47,1173.73 2088.51,980.78 
  2090.55,1068.92 2092.59,1043.64 2094.63,1229.33 2096.66,1060.15 2098.7,737.184 2100.74,1107.35 2102.78,1309.3 2104.82,692.536 2106.85,898.021 2108.89,1073.95 
  2110.93,859.407 2112.97,1200.55 2115,1049.39 2117.04,1196.38 2119.08,970.891 2121.12,806.182 2123.16,904.225 2125.19,1221.67 2127.23,1093.29 2129.27,689.868 
  2131.31,792.981 2133.34,931.161 2135.38,1209.92 2137.42,1261.5 2139.46,1127.16 2141.5,1031.25 2143.53,986.593 2145.57,939.8 2147.61,1009.32 2149.65,1191.7 
  2151.68,1029.81 2153.72,1025.53 2155.76,1195.82 2157.8,1021.99 2159.84,1272.32 2161.87,1210.21 2163.91,805.707 2165.95,1002.12 2167.99,1020.51 2170.03,1229.36 
  2172.06,1057.42 2174.1,908.633 2176.14,1342.86 2178.18,992.195 2180.21,1056.13 2182.25,1325.81 2184.29,975.435 2186.33,1083.31 2188.37,1062.81 2190.4,964.308 
  2192.44,881.84 2194.48,970.469 2196.52,1111.09 2198.55,999.95 2200.59,1040.87 2202.63,1061.15 2204.67,794.885 2206.71,1071.39 2208.74,1279.18 2210.78,760.003 
  2212.82,1024.11 2214.86,1082.31 2216.89,829.806 2218.93,1166.27 2220.97,829.149 2223.01,919.779 2225.05,1071.54 2227.08,1241 2229.12,1115.52 2231.16,960.906 
  2233.2,1094.66 2235.24,793.631 2237.27,853.796 2239.31,818.996 2241.35,1179.27 2243.39,1209.44 2245.42,1025.77 2247.46,958.646 2249.5,1260.86 2251.54,1212.85 
  2253.58,946.457 2255.61,878.169 2257.65,1232.83 2259.69,1007.62 2261.73,1009.98 2263.76,1060.15 2265.8,879.728 2267.84,861.458 2269.88,1142.25 2271.92,1217.23 
  2273.95,1334.93 2275.99,1089.24 2278.03,1207.07 2280.07,1091.24 2282.1,1137.01 2284.14,1363.3 2286.18,938.392 2288.22,841.729 2290.26,1135.81 2292.29,931.99 
  
  "/>
<polyline clip-path="url(#clip542)" style="stroke:#e26f46; stroke-width:4; stroke-opacity:1; fill:none" stroke-dasharray="16, 10" points="
  348.221,2722.89 348.221,-1176.24 
  "/>
<path clip-path="url(#clip540)" d="
M1687.63 287.756 L2281.55 287.756 L2281.55 166.796 L1687.63 166.796  Z
  " fill="#ffffff" fill-rule="evenodd" fill-opacity="1"/>
<polyline clip-path="url(#clip540)" style="stroke:#000000; stroke-width:4; stroke-opacity:1; fill:none" points="
  1687.63,287.756 2281.55,287.756 2281.55,166.796 1687.63,166.796 1687.63,287.756 
  "/>
<polyline clip-path="url(#clip540)" style="stroke:#e26f46; stroke-width:4; stroke-opacity:1; fill:none" stroke-dasharray="16, 10" points="
  1711.36,227.276 1853.79,227.276 
  "/>
<path clip-path="url(#clip540)" d="M 0 0 M1877.52 209.996 L1897.38 209.996 L1897.38 213.931 L1882.2 213.931 L1882.2 224.116 L1895.9 224.116 L1895.9 228.051 L1882.2 228.051 L1882.2 244.556 L1877.52 244.556 L1877.52 209.996 Z" fill="#000000" fill-rule="evenodd" fill-opacity="1" /><path clip-path="url(#clip540)" d="M 0 0 M1916.18 222.611 Q1915.46 222.195 1914.61 222.01 Q1913.77 221.801 1912.75 221.801 Q1909.14 221.801 1907.2 224.162 Q1905.28 226.5 1905.28 230.898 L1905.28 244.556 L1900.99 244.556 L1900.99 218.63 L1905.28 218.63 L1905.28 222.658 Q1906.62 220.297 1908.77 219.162 Q1910.93 218.005 1914 218.005 Q1914.44 218.005 1914.98 218.074 Q1915.51 218.121 1916.16 218.236 L1916.18 222.611 Z" fill="#000000" fill-rule="evenodd" fill-opacity="1" /><path clip-path="url(#clip540)" d="M 0 0 M1941.78 230.528 L1941.78 232.611 L1922.2 232.611 Q1922.48 237.009 1924.84 239.324 Q1927.22 241.616 1931.46 241.616 Q1933.91 241.616 1936.2 241.014 Q1938.52 240.412 1940.79 239.209 L1940.79 243.236 Q1938.49 244.208 1936.09 244.718 Q1933.68 245.227 1931.2 245.227 Q1925 245.227 1921.36 241.616 Q1917.75 238.005 1917.75 231.847 Q1917.75 225.482 1921.18 221.755 Q1924.63 218.005 1930.46 218.005 Q1935.69 218.005 1938.73 221.385 Q1941.78 224.741 1941.78 230.528 M1937.52 229.278 Q1937.48 225.783 1935.55 223.699 Q1933.66 221.616 1930.51 221.616 Q1926.94 221.616 1924.79 223.63 Q1922.66 225.644 1922.34 229.301 L1937.52 229.278 Z" fill="#000000" fill-rule="evenodd" fill-opacity="1" /><path clip-path="url(#clip540)" d="M 0 0 M1951.32 231.616 Q1951.32 236.315 1953.24 239 Q1955.18 241.662 1958.56 241.662 Q1961.94 241.662 1963.89 239 Q1965.83 236.315 1965.83 231.616 Q1965.83 226.917 1963.89 224.255 Q1961.94 221.57 1958.56 221.57 Q1955.18 221.57 1953.24 224.255 Q1951.32 226.917 1951.32 231.616 M1965.83 240.667 Q1964.49 242.982 1962.43 244.116 Q1960.39 245.227 1957.52 245.227 Q1952.82 245.227 1949.86 241.477 Q1946.92 237.727 1946.92 231.616 Q1946.92 225.505 1949.86 221.755 Q1952.82 218.005 1957.52 218.005 Q1960.39 218.005 1962.43 219.139 Q1964.49 220.25 1965.83 222.565 L1965.83 218.63 L1970.09 218.63 L1970.09 254.417 L1965.83 254.417 L1965.83 240.667 Z" fill="#000000" fill-rule="evenodd" fill-opacity="1" /><path clip-path="url(#clip540)" d="M 0 0 M1978.42 234.324 L1978.42 218.63 L1982.68 218.63 L1982.68 234.162 Q1982.68 237.843 1984.12 239.695 Q1985.55 241.523 1988.42 241.523 Q1991.87 241.523 1993.86 239.324 Q1995.88 237.125 1995.88 233.329 L1995.88 218.63 L2000.14 218.63 L2000.14 244.556 L1995.88 244.556 L1995.88 240.574 Q1994.33 242.935 1992.27 244.093 Q1990.23 245.227 1987.52 245.227 Q1983.05 245.227 1980.74 242.449 Q1978.42 239.671 1978.42 234.324 M1989.14 218.005 L1989.14 218.005 Z" fill="#000000" fill-rule="evenodd" fill-opacity="1" /><path clip-path="url(#clip540)" d="M 0 0 M2031.09 230.528 L2031.09 232.611 L2011.5 232.611 Q2011.78 237.009 2014.14 239.324 Q2016.53 241.616 2020.76 241.616 Q2023.22 241.616 2025.51 241.014 Q2027.82 240.412 2030.09 239.209 L2030.09 243.236 Q2027.8 244.208 2025.39 244.718 Q2022.98 245.227 2020.51 245.227 Q2014.3 245.227 2010.67 241.616 Q2007.06 238.005 2007.06 231.847 Q2007.06 225.482 2010.48 221.755 Q2013.93 218.005 2019.77 218.005 Q2025 218.005 2028.03 221.385 Q2031.09 224.741 2031.09 230.528 M2026.83 229.278 Q2026.78 225.783 2024.86 223.699 Q2022.96 221.616 2019.81 221.616 Q2016.25 221.616 2014.1 223.63 Q2011.97 225.644 2011.64 229.301 L2026.83 229.278 Z" fill="#000000" fill-rule="evenodd" fill-opacity="1" /><path clip-path="url(#clip540)" d="M 0 0 M2059.63 228.908 L2059.63 244.556 L2055.37 244.556 L2055.37 229.047 Q2055.37 225.366 2053.93 223.537 Q2052.5 221.709 2049.63 221.709 Q2046.18 221.709 2044.19 223.908 Q2042.2 226.107 2042.2 229.903 L2042.2 244.556 L2037.92 244.556 L2037.92 218.63 L2042.2 218.63 L2042.2 222.658 Q2043.73 220.32 2045.79 219.162 Q2047.87 218.005 2050.58 218.005 Q2055.04 218.005 2057.34 220.783 Q2059.63 223.537 2059.63 228.908 Z" fill="#000000" fill-rule="evenodd" fill-opacity="1" /><path clip-path="url(#clip540)" d="M 0 0 M2086.78 219.625 L2086.78 223.607 Q2084.98 222.611 2083.15 222.125 Q2081.34 221.616 2079.49 221.616 Q2075.35 221.616 2073.05 224.255 Q2070.76 226.871 2070.76 231.616 Q2070.76 236.361 2073.05 239 Q2075.35 241.616 2079.49 241.616 Q2081.34 241.616 2083.15 241.13 Q2084.98 240.621 2086.78 239.625 L2086.78 243.56 Q2085 244.394 2083.08 244.81 Q2081.18 245.227 2079.03 245.227 Q2073.17 245.227 2069.72 241.546 Q2066.27 237.866 2066.27 231.616 Q2066.27 225.273 2069.74 221.639 Q2073.24 218.005 2079.3 218.005 Q2081.27 218.005 2083.15 218.422 Q2085.02 218.815 2086.78 219.625 Z" fill="#000000" fill-rule="evenodd" fill-opacity="1" /><path clip-path="url(#clip540)" d="M 0 0 M2104.97 246.963 Q2103.17 251.593 2101.46 253.005 Q2099.74 254.417 2096.87 254.417 L2093.47 254.417 L2093.47 250.852 L2095.97 250.852 Q2097.73 250.852 2098.7 250.019 Q2099.67 249.185 2100.85 246.083 L2101.62 244.139 L2091.13 218.63 L2095.65 218.63 L2103.75 238.908 L2111.85 218.63 L2116.36 218.63 L2104.97 246.963 Z" fill="#000000" fill-rule="evenodd" fill-opacity="1" /><path clip-path="url(#clip540)" d="M 0 0 M2153.84 219.394 L2153.84 223.422 Q2152.03 222.496 2150.09 222.033 Q2148.15 221.57 2146.06 221.57 Q2142.89 221.57 2141.29 222.542 Q2139.72 223.514 2139.72 225.459 Q2139.72 226.94 2140.85 227.797 Q2141.99 228.63 2145.41 229.394 L2146.87 229.718 Q2151.41 230.69 2153.31 232.472 Q2155.23 234.232 2155.23 237.403 Q2155.23 241.014 2152.36 243.121 Q2149.51 245.227 2144.51 245.227 Q2142.43 245.227 2140.16 244.81 Q2137.91 244.417 2135.41 243.607 L2135.41 239.209 Q2137.78 240.435 2140.07 241.06 Q2142.36 241.662 2144.6 241.662 Q2147.61 241.662 2149.23 240.644 Q2150.85 239.602 2150.85 237.727 Q2150.85 235.991 2149.67 235.065 Q2148.52 234.139 2144.56 233.283 L2143.08 232.935 Q2139.12 232.102 2137.36 230.389 Q2135.6 228.653 2135.6 225.644 Q2135.6 221.986 2138.19 219.996 Q2140.78 218.005 2145.55 218.005 Q2147.91 218.005 2150 218.352 Q2152.08 218.699 2153.84 219.394 Z" fill="#000000" fill-rule="evenodd" fill-opacity="1" /><path clip-path="url(#clip540)" d="M 0 0 M2183.56 228.908 L2183.56 244.556 L2179.3 244.556 L2179.3 229.047 Q2179.3 225.366 2177.87 223.537 Q2176.43 221.709 2173.56 221.709 Q2170.11 221.709 2168.12 223.908 Q2166.13 226.107 2166.13 229.903 L2166.13 244.556 L2161.85 244.556 L2161.85 208.537 L2166.13 208.537 L2166.13 222.658 Q2167.66 220.32 2169.72 219.162 Q2171.8 218.005 2174.51 218.005 Q2178.98 218.005 2181.27 220.783 Q2183.56 223.537 2183.56 228.908 Z" fill="#000000" fill-rule="evenodd" fill-opacity="1" /><path clip-path="url(#clip540)" d="M 0 0 M2192.06 218.63 L2196.32 218.63 L2196.32 244.556 L2192.06 244.556 L2192.06 218.63 M2192.06 208.537 L2196.32 208.537 L2196.32 213.931 L2192.06 213.931 L2192.06 208.537 Z" fill="#000000" fill-rule="evenodd" fill-opacity="1" /><path clip-path="url(#clip540)" d="M 0 0 M2218.35 208.537 L2218.35 212.079 L2214.28 212.079 Q2211.99 212.079 2211.09 213.005 Q2210.21 213.931 2210.21 216.338 L2210.21 218.63 L2217.22 218.63 L2217.22 221.94 L2210.21 221.94 L2210.21 244.556 L2205.92 244.556 L2205.92 221.94 L2201.85 221.94 L2201.85 218.63 L2205.92 218.63 L2205.92 216.824 Q2205.92 212.496 2207.94 210.528 Q2209.95 208.537 2214.33 208.537 L2218.35 208.537 Z" fill="#000000" fill-rule="evenodd" fill-opacity="1" /><path clip-path="url(#clip540)" d="M 0 0 M2225.3 211.269 L2225.3 218.63 L2234.07 218.63 L2234.07 221.94 L2225.3 221.94 L2225.3 236.014 Q2225.3 239.185 2226.15 240.088 Q2227.03 240.991 2229.7 240.991 L2234.07 240.991 L2234.07 244.556 L2229.7 244.556 Q2224.77 244.556 2222.89 242.727 Q2221.02 240.875 2221.02 236.014 L2221.02 221.94 L2217.89 221.94 L2217.89 218.63 L2221.02 218.63 L2221.02 211.269 L2225.3 211.269 Z" fill="#000000" fill-rule="evenodd" fill-opacity="1" /></svg>
